<?xml version="1.0" standalone="no"?>
<!DOCTYPE svg PUBLIC "-//W3C//DTD SVG 20010904//EN"
 "http://www.w3.org/TR/2001/REC-SVG-20010904/DTD/svg10.dtd">
<svg version="1.0" xmlns="http://www.w3.org/2000/svg"
 width="1000.000000pt" height="1000.000000pt" viewBox="0 0 1000.000000 1000.000000"
 preserveAspectRatio="xMidYMid meet">
<metadata>
Created by potrace 1.14, written by Peter Selinger 2001-2017
</metadata>
<g transform="translate(0.000000,1000.000000) scale(0.100000,-0.100000)"
fill="#000000" stroke="none">
<path d="M4605 9954 c-771 -76 -1513 -366 -2129 -832 -145 -109 -232 -186
-394 -346 -235 -231 -385 -409 -581 -689 -55 -78 -140 -186 -190 -240 -106
-115 -176 -224 -278 -432 -281 -574 -493 -1385 -507 -1947 l-4 -136 37 -6 c20
-3 48 -6 63 -6 l26 0 4 -262 c3 -298 6 -307 86 -361 34 -23 41 -33 36 -50 -3
-15 4 -36 22 -62 35 -52 38 -110 6 -135 -12 -10 -22 -24 -22 -31 0 -7 -3 -9
-7 -6 -3 4 -16 -7 -28 -23 -12 -16 -26 -26 -30 -22 -5 4 -5 1 -1 -5 4 -7 -4
-24 -18 -39 -31 -34 -50 -101 -42 -151 3 -21 8 -65 11 -98 15 -168 46 -278
160 -565 62 -157 70 -175 152 -355 169 -367 652 -1279 908 -1715 99 -167 165
-280 186 -318 67 -116 229 -365 337 -517 106 -149 208 -270 299 -356 87 -82
141 -120 239 -166 65 -31 88 -36 167 -40 67 -4 104 -1 136 10 33 12 49 13 67
5 30 -14 97 9 70 24 -17 10 -22 28 -7 28 5 0 36 17 68 39 66 44 143 122 168
171 19 38 44 163 45 227 0 31 7 49 25 69 l25 27 23 -21 c55 -52 191 -72 306
-46 42 10 78 21 81 24 13 13 52 31 45 20 -6 -9 -2 -9 14 -1 11 7 21 16 21 21
0 6 3 9 8 9 20 -3 32 2 32 15 0 10 7 13 21 11 15 -3 19 0 15 10 -5 14 5 19 32
16 6 -1 12 5 12 14 0 8 5 15 11 15 15 0 69 52 63 61 -2 4 3 10 12 13 8 3 12
10 9 16 -3 5 -2 10 4 10 27 0 75 141 86 250 7 69 -2 133 -18 123 -7 -4 -6 1 2
10 12 15 10 20 -12 41 -20 18 -23 26 -12 30 7 2 16 0 19 -7 3 -7 5 -6 5 3 1
26 -35 61 -56 54 -15 -5 -16 -4 -3 5 13 9 13 12 1 20 -8 5 -11 16 -8 26 4 9 3
14 -3 10 -6 -3 -10 -1 -10 4 0 6 -7 11 -16 11 -13 0 -14 3 -5 14 8 10 9 16 1
21 -5 3 -10 3 -10 -2 0 -4 -4 -2 -9 6 -8 13 -12 13 -28 0 -16 -12 -17 -12 -6
2 7 9 9 20 5 24 -4 5 -2 5 5 1 6 -3 14 -2 18 4 3 5 -3 10 -15 10 -14 0 -24 9
-31 30 -7 18 -15 27 -22 23 -7 -4 -7 0 1 9 10 13 10 17 0 21 -10 4 -10 6 0 6
6 1 12 6 12 11 0 7 -6 7 -19 0 -25 -13 -34 -13 -26 0 3 6 2 10 -4 10 -6 0 -8
6 -5 14 3 8 13 12 26 8 14 -3 19 -1 14 6 -4 7 -1 12 6 13 7 0 -3 7 -22 14
l-35 13 30 2 c28 2 28 3 -9 11 -53 13 -60 21 -13 16 21 -2 40 0 43 4 3 5 -11
9 -30 9 -20 0 -36 5 -36 10 0 6 7 10 16 8 10 -2 19 2 21 8 2 7 -9 10 -32 7
-24 -2 -34 0 -30 7 3 6 9 8 13 6 4 -2 16 2 27 10 18 14 17 15 -22 10 -26 -3
-43 -1 -43 5 0 6 4 8 9 4 5 -3 12 -1 16 5 4 6 10 8 14 6 4 -3 8 1 8 8 0 8 -9
11 -24 8 -30 -6 -30 15 0 29 18 7 14 8 -18 4 -29 -3 -34 -2 -19 4 25 11 43 47
19 37 -12 -4 -14 0 -11 20 4 22 2 24 -17 19 -21 -6 -22 -6 -3 9 11 9 14 16 7
16 -7 0 -9 5 -5 11 3 6 -8 3 -26 -6 -17 -9 -34 -14 -37 -12 -2 3 5 10 16 17
12 6 18 16 15 22 -4 6 -3 8 3 5 6 -4 19 0 29 8 19 15 19 15 0 8 -14 -5 -17 -3
-12 6 5 8 -5 6 -25 -5 -24 -12 -31 -13 -22 -3 6 8 12 19 13 24 1 6 4 12 7 15
4 3 3 -1 -2 -8 -6 -11 -3 -12 14 -3 25 14 28 23 4 14 -16 -6 -17 -5 -3 12 10
13 1 10 -30 -10 -38 -24 -42 -25 -26 -6 11 12 21 30 22 39 2 9 8 18 13 20 6 2
11 9 11 15 0 6 -12 0 -27 -14 -16 -14 -37 -31 -48 -39 -19 -14 -19 -14 -4 5 9
11 23 35 32 53 l16 33 -35 -30 c-36 -32 -55 -41 -35 -17 6 7 22 35 36 62 l26
49 -45 -47 c-25 -27 -48 -48 -52 -48 -4 0 5 12 20 26 25 26 30 36 27 61 -1 6
3 14 9 18 5 3 10 11 10 17 0 5 -15 -8 -32 -30 -28 -34 -58 -60 -58 -48 0 1 13
17 30 36 16 18 28 35 26 38 -3 2 -1 16 5 31 8 23 4 21 -27 -14 -19 -22 -31
-30 -25 -19 6 12 7 25 3 29 -4 5 -1 5 6 1 6 -4 12 -4 13 1 1 9 5 27 15 63 5
17 -5 9 -28 -24 -19 -27 -41 -52 -49 -54 -11 -3 -11 -2 1 9 29 25 42 48 46 81
l5 33 -28 -30 c-15 -17 -24 -25 -20 -18 5 7 12 27 16 45 5 18 11 44 15 58 4
17 0 13 -14 -12 -11 -20 -25 -40 -31 -44 -8 -4 -9 -3 -5 4 4 7 9 20 11 29 2
10 6 32 10 48 5 24 0 19 -24 -22 -17 -29 -34 -53 -37 -53 -3 0 3 15 14 33 11
17 22 55 25 82 5 35 4 42 -2 23 -10 -30 -41 -78 -41 -62 0 5 4 14 9 20 6 5 12
32 15 59 l6 50 -20 -42 c-25 -55 -33 -55 -17 -1 7 24 10 57 6 73 l-7 30 -1
-28 c-1 -27 -26 -87 -37 -87 -3 0 -2 4 1 10 10 16 17 52 21 100 3 45 3 45 -5
7 -13 -62 -22 -55 -17 13 l6 65 -16 -49 c-17 -54 -29 -59 -14 -5 13 43 13 59
0 59 -5 0 -10 -8 -10 -17 0 -10 -5 -25 -10 -33 -8 -11 -9 -9 -6 10 3 14 5 41
6 60 1 31 2 33 10 13 12 -30 22 -30 11 -1 -12 33 -31 34 -31 1 0 -15 -4 -34
-9 -41 -5 -8 -7 17 -5 60 2 57 1 64 -5 31 -4 -24 -10 -46 -14 -49 -9 -9 -8 10
2 64 5 23 5 45 0 48 -5 3 -9 -3 -10 -13 -1 -26 -7 -54 -12 -60 -3 -2 -4 13 -4
34 1 23 -2 37 -9 36 -12 -2 -13 41 -1 53 9 9 -12 46 -23 39 -5 -3 -7 3 -5 13
4 22 -42 105 -55 97 -4 -3 -14 3 -21 13 -13 15 -12 16 4 3 13 -10 17 -11 17
-1 0 15 -41 83 -52 88 -4 2 -8 12 -8 23 0 10 -5 19 -10 19 -6 0 -9 6 -8 13 2
6 -4 10 -12 9 -8 -2 -12 -1 -8 3 9 9 -11 65 -24 65 -5 0 -7 4 -3 9 3 5 -2 17
-11 25 -8 9 -12 16 -8 16 16 0 -22 31 -72 60 -56 31 -76 52 -24 25 34 -18 44
-19 34 -4 -3 6 -25 19 -48 29 -22 10 -35 19 -27 19 24 2 91 -42 89 -57 -2 -8
3 -17 9 -19 31 -11 -8 44 -53 76 -45 31 -45 33 2 14 14 -5 15 -3 4 18 -7 13
-18 27 -23 31 -6 3 -12 14 -13 24 -2 9 -9 21 -16 25 -7 5 -9 9 -4 9 5 0 1 9
-9 20 -10 11 -14 20 -10 20 4 0 1 8 -8 18 -8 9 -15 22 -15 27 2 15 -62 55 -88
55 -13 0 -26 5 -29 11 -9 14 63 3 84 -14 11 -8 10 -5 -2 10 -10 11 -39 27 -65
34 -29 7 -40 14 -29 16 10 3 31 0 47 -6 48 -16 34 -2 -22 24 -38 17 -46 24
-30 24 13 1 33 -4 44 -10 15 -8 19 -8 13 1 -9 14 -47 29 -94 36 -57 9 -51 16
11 12 31 -1 53 1 49 5 -5 5 -15 10 -22 11 -75 15 -90 20 -79 26 6 4 30 4 53
-1 36 -6 39 -5 23 6 -10 8 -35 17 -57 20 -51 9 -51 25 1 19 53 -6 51 3 -5 17
-54 14 -61 34 -9 26 20 -3 33 -3 30 1 -11 11 -96 29 -96 21 0 -5 -8 -5 -17 -2
-15 6 -15 7 3 14 10 4 35 8 54 9 l35 2 -35 10 c-19 5 -45 9 -58 9 -13 -1 -20
4 -17 9 3 6 25 10 47 10 23 0 39 2 37 4 -6 7 -70 19 -93 18 -28 -1 -7 15 34
26 l35 10 -35 3 c-19 1 -46 1 -60 0 -33 -3 -21 7 27 24 39 15 35 17 -34 18
-32 0 -29 15 5 24 l27 7 -25 6 c-14 4 -35 3 -47 -1 -40 -15 -24 8 17 25 22 9
40 18 40 20 0 2 -21 2 -47 0 l-48 -4 25 20 c17 13 20 20 10 20 -13 0 -13 1 0
10 24 15 6 12 -29 -6 -49 -24 -48 -10 1 19 39 23 41 25 16 24 -16 -1 -28 -4
-28 -7 0 -3 -9 -6 -21 -7 -20 -2 -21 -1 -3 18 10 11 19 26 20 34 2 12 -2 11
-22 -2 -26 -17 -33 -3 -9 17 32 26 1 29 -33 3 l-37 -28 40 50 c22 28 33 44 24
38 -9 -7 -20 -9 -24 -5 -5 4 -5 1 -1 -6 4 -7 2 -12 -5 -12 -7 0 -22 -8 -33
-18 -20 -17 -20 -16 -6 3 8 11 18 22 21 25 3 3 12 15 18 28 12 22 11 23 -8 12
-12 -6 -21 -14 -21 -18 0 -4 -9 -13 -21 -20 -19 -12 -19 -11 3 20 38 51 45 79
10 41 -36 -41 -51 -43 -23 -4 26 36 28 62 4 34 -17 -19 -58 -29 -47 -11 3 5 9
6 14 3 10 -6 30 26 30 47 0 7 -9 2 -20 -12 l-20 -25 15 38 c8 20 11 37 6 37
-5 0 -13 -13 -19 -28 -11 -33 -42 -41 -34 -8 5 19 6 19 12 0 6 -15 9 -13 15
16 4 19 13 38 19 42 6 5 2 8 -11 8 -12 0 -25 5 -29 12 -4 7 -3 8 4 4 16 -10
14 5 -3 28 -7 10 -19 15 -25 11 -9 -6 -9 -10 1 -16 7 -4 11 -11 7 -14 -3 -3
-17 5 -31 19 -15 14 -31 26 -38 26 -6 0 -1 -9 12 -20 13 -10 20 -19 15 -20 -5
0 -1 -9 9 -20 18 -20 18 -21 0 -14 -14 6 -16 4 -10 -6 6 -9 4 -11 -5 -5 -8 5
-11 3 -8 -6 3 -8 14 -13 26 -12 11 1 22 -4 25 -12 4 -10 -1 -12 -19 -9 -21 4
-23 2 -15 -13 40 -79 41 -108 3 -75 -15 13 -19 21 -11 24 23 8 -2 28 -33 28
-37 0 -33 9 6 12 l28 2 -23 19 c-15 12 -34 17 -51 15 -16 -3 -25 -1 -21 3 4 4
24 9 43 11 l35 3 -35 18 c-22 12 -26 17 -12 14 28 -6 28 0 -1 25 -17 15 -18
18 -4 14 26 -8 21 -1 -15 24 -18 12 -24 19 -14 16 16 -6 17 -4 5 10 -7 9 -22
20 -34 25 -16 8 -14 8 10 4 l30 -5 -27 15 c-34 19 -36 29 -5 20 19 -5 20 -5 4
5 -9 6 -15 15 -12 21 3 5 -1 6 -11 2 -14 -5 -15 -3 -4 17 10 19 10 22 -2 18
-8 -3 -25 0 -39 8 -13 7 -19 13 -13 14 12 0 15 30 2 30 -4 0 -8 -5 -8 -11 0
-5 -5 -7 -11 -3 -8 4 -3 12 12 20 13 7 18 13 11 14 -7 0 -11 4 -8 8 3 5 -6 15
-19 22 -14 7 -27 22 -31 32 -3 10 -9 16 -14 13 -5 -3 -13 3 -19 12 -6 11 -11
13 -11 5 0 -23 -18 -3 -25 29 -5 22 -10 28 -15 18 -5 -7 -6 -18 -3 -24 2 -5
-5 1 -17 15 l-21 25 5 -33 c2 -19 2 -31 -2 -28 -3 4 -7 17 -9 29 -2 12 -10 29
-18 37 -13 13 -15 12 -15 -5 -1 -16 -4 -14 -17 10 l-17 30 -6 -30 -6 -30 -13
35 -14 35 -7 -30 -7 -30 -8 29 c-7 26 -9 27 -20 13 -16 -22 -21 -21 -29 6 l-6
22 -14 -24 -14 -24 -7 23 c-7 21 -9 22 -20 7 -9 -13 -14 -14 -24 -4 -10 9 -15
8 -23 -7 -8 -14 -12 -15 -18 -5 -7 10 -12 10 -23 1 -7 -7 -17 -8 -21 -4 -4 4
-14 -2 -22 -12 -8 -11 -14 -14 -14 -8 0 36 -163 -84 -218 -161 -81 -113 -87
-129 -87 -267 0 -125 -1 -127 -34 -121 -18 2 -22 53 -7 76 15 22 14 23 -27 38
-23 8 -80 32 -126 52 -89 40 -102 41 -281 31 -70 -3 -86 -1 -97 12 -10 15 -11
14 -6 -5 6 -26 -14 -32 -23 -8 -4 8 -12 15 -19 15 -11 0 -13 50 -12 257 2 236
3 258 19 261 16 3 18 -16 21 -250 l2 -253 3 253 c2 216 4 252 17 252 11 0 15
14 17 58 0 31 1 65 0 75 -2 18 22 23 52 11 24 -9 23 -129 -1 -143 -15 -9 -13
-10 13 -11 l32 0 6 88 c47 600 170 1117 386 1622 32 74 98 221 148 325 49 105
98 216 108 249 10 32 24 61 31 63 7 3 13 14 13 25 0 15 3 18 13 10 8 -7 16 -5
27 6 8 9 14 18 13 19 -10 11 0 21 17 18 17 -3 19 0 16 23 -5 25 -4 25 8 9 11
-14 16 -15 22 -5 5 7 7 22 5 33 -3 16 -1 17 13 6 11 -10 16 -10 16 -2 0 7 4
10 9 6 6 -3 8 10 5 32 l-4 38 11 -34 c8 -27 13 -31 20 -20 5 8 9 30 9 49 1 31
2 32 10 13 11 -28 40 -21 33 8 -3 10 0 19 6 19 6 0 11 -7 11 -16 0 -8 5 -12
11 -8 6 3 9 20 7 36 -3 16 0 32 5 35 6 3 7 1 3 -5 -4 -7 -2 -12 3 -12 6 0 11
-7 11 -15 0 -13 3 -13 13 -3 8 7 12 20 9 30 -2 10 1 18 7 18 7 0 10 -4 6 -9
-3 -5 -1 -12 5 -16 11 -7 25 39 15 54 -11 18 7 12 21 -6 9 -12 13 -14 14 -5 0
7 4 11 9 8 5 -4 7 3 4 14 -3 11 0 20 6 20 6 0 11 -8 11 -17 1 -17 1 -17 11 0
6 10 9 27 6 38 -7 28 12 34 22 7 6 -13 10 -17 10 -10 1 7 5 11 10 8 5 -4 7 3
4 14 -3 11 0 20 6 20 6 0 11 -8 11 -17 1 -17 1 -17 11 0 6 9 8 34 5 55 -5 35
-5 36 8 13 17 -30 46 -37 41 -10 -2 10 0 19 6 19 5 0 9 -8 10 -17 0 -11 3 -13
6 -5 2 6 8 10 12 8 4 -3 7 6 7 20 0 13 -3 24 -6 24 -4 0 -7 7 -7 16 0 15 2 15
13 -1 7 -10 15 -22 17 -28 2 -6 9 -7 16 -3 8 6 11 20 7 40 l-5 31 15 -28 c19
-35 35 -26 30 16 -3 27 -2 29 9 14 15 -21 45 -22 45 -2 0 8 -5 15 -12 15 -6 0
-8 3 -4 7 4 5 14 -1 22 -11 8 -11 14 -14 14 -7 0 7 5 9 10 6 6 -3 10 1 10 9 0
9 -4 16 -9 16 -10 0 -9 26 2 36 4 4 7 -3 7 -15 0 -12 4 -20 9 -17 5 4 12 0 14
-6 3 -7 8 2 12 20 7 29 9 30 20 15 11 -15 13 -15 23 4 6 11 8 24 4 29 -4 5 0
3 8 -3 20 -15 45 0 37 21 -4 9 -2 16 2 16 5 0 11 -6 14 -12 4 -10 7 -10 18 0
10 10 11 19 2 42 -14 38 -8 39 12 0 10 -19 20 -27 30 -24 8 4 12 10 9 15 -3 5
-1 9 5 9 5 0 12 -6 14 -12 3 -7 8 2 12 20 7 29 25 46 25 23 0 -6 9 -9 20 -8
23 1 23 2 10 28 -6 10 -7 19 -2 19 5 0 14 -10 20 -22 6 -13 11 -17 11 -10 1 7
5 11 10 8 12 -8 8 47 -4 56 -6 5 -5 8 3 8 7 0 17 -12 23 -27 7 -16 13 -23 16
-15 3 6 9 9 15 6 7 -5 9 3 4 22 -6 27 -5 28 7 7 8 -15 17 -19 25 -14 17 10 17
21 2 31 -8 5 -7 9 5 13 9 4 14 3 10 -2 -10 -17 20 -18 32 -2 11 14 14 14 23 1
7 -11 10 -11 10 -2 0 8 5 10 13 6 6 -4 9 -4 5 1 -4 4 -2 15 5 23 10 13 9 14
-2 7 -11 -6 -13 -4 -8 8 3 9 1 17 -6 20 -8 2 -8 5 0 10 6 4 16 -6 23 -23 14
-33 27 -38 37 -15 3 9 15 15 26 13 13 -2 21 3 23 15 1 9 -2 17 -7 17 -6 0 -7
5 -4 10 3 6 1 10 -5 10 -6 0 -8 5 -4 11 3 6 14 -2 25 -21 21 -34 43 -31 36 6
-6 33 9 30 18 -3 l7 -28 13 25 c9 16 10 27 3 31 -5 4 -3 9 7 12 9 4 14 3 11
-1 -9 -14 10 -33 27 -26 20 7 22 25 5 42 -9 9 -9 12 0 12 7 0 16 -8 20 -17 11
-28 31 -26 27 3 -1 13 2 27 6 30 8 5 13 -10 10 -29 -1 -5 6 -7 16 -5 10 2 17
10 15 16 -1 7 5 12 13 12 8 0 15 -4 15 -10 0 -5 8 -6 17 -3 12 5 13 8 4 11
-11 4 -11 6 0 13 11 7 11 9 1 9 -7 0 -10 5 -7 10 4 6 14 1 25 -12 11 -13 19
-17 20 -10 0 8 5 10 12 6 8 -5 9 -2 5 9 -7 19 9 23 17 5 3 -9 9 -7 20 6 9 11
13 22 8 25 -4 3 -8 15 -10 26 -1 14 3 11 14 -10 9 -16 18 -31 19 -33 6 -7 34
11 29 19 -3 5 -1 9 5 9 5 0 11 -5 13 -11 3 -8 11 -5 22 7 18 17 18 18 0 24
-16 6 -16 7 -1 13 9 3 17 3 17 -1 1 -18 18 -32 33 -26 9 3 14 10 11 15 -3 5 0
9 5 9 6 0 11 -7 11 -15 0 -13 2 -14 14 -3 8 7 12 16 10 19 -2 4 3 9 11 13 9 3
15 -1 15 -11 0 -12 3 -13 15 -3 8 7 12 16 9 21 -3 5 2 9 11 9 9 0 13 -5 10
-10 -5 -8 32 -8 43 1 1 1 5 2 10 3 19 4 30 18 27 36 -2 11 0 20 6 20 5 0 9 -9
9 -19 0 -11 5 -23 10 -26 6 -3 10 -1 10 5 0 6 4 9 9 5 6 -3 8 5 5 19 -2 14 1
28 8 32 7 5 9 2 6 -8 -9 -21 6 -40 25 -32 9 3 14 10 11 15 -3 5 0 9 5 9 6 0
11 -4 11 -10 0 -5 7 -10 15 -10 8 0 15 6 15 14 0 8 7 17 16 20 8 3 12 2 9 -3
-10 -18 18 -24 31 -7 9 13 13 14 17 4 4 -10 10 -8 21 6 13 16 18 17 32 5 14
-11 18 -11 29 4 13 18 31 24 20 7 -10 -16 7 -12 27 7 11 9 18 11 18 5 0 -17
30 -15 36 3 8 19 24 19 24 0 0 -9 6 -12 15 -9 8 4 12 10 9 15 -3 5 1 9 8 9 11
0 11 2 0 9 -10 6 -10 10 1 19 12 10 14 8 12 -13 -2 -14 1 -28 7 -31 14 -9 29
17 24 39 -2 9 0 17 4 17 5 0 11 -14 15 -30 7 -31 7 -31 25 -10 21 24 30 25 30
4 0 -13 3 -14 13 -5 8 6 18 7 22 3 5 -4 5 1 2 11 -4 9 -2 17 3 17 6 0 10 -7
10 -15 0 -9 6 -12 15 -9 8 4 12 10 9 15 -3 5 1 9 8 9 11 0 10 2 0 9 -11 7 -11
9 0 13 9 4 15 -3 16 -20 3 -35 7 -37 31 -13 19 19 25 19 22 -1 -2 -15 20 -8
25 7 8 20 24 19 24 0 0 -13 4 -14 20 -5 11 6 18 15 15 21 -4 5 -2 9 4 9 5 0
14 -7 19 -16 5 -9 12 -16 17 -16 15 0 24 26 13 39 -7 9 -7 13 1 13 6 0 13 -11
17 -26 4 -16 12 -24 23 -21 9 2 15 9 14 15 -2 7 2 12 7 12 6 0 10 -7 10 -15 0
-9 6 -12 15 -9 8 4 12 10 9 15 -3 5 0 9 6 9 6 0 9 4 5 9 -3 5 -1 12 5 16 6 3
10 -4 10 -18 0 -16 7 -26 20 -30 18 -5 20 -2 16 24 -2 16 0 29 6 29 6 0 8 -7
4 -15 -3 -8 -1 -15 5 -15 6 0 7 -4 4 -10 -3 -5 3 -10 15 -10 12 0 18 5 15 10
-3 6 0 10 7 10 11 0 11 2 0 9 -11 6 -10 10 1 19 10 9 13 6 13 -16 -1 -18 5
-28 18 -30 14 -3 17 0 13 12 -4 9 -2 16 4 16 6 0 7 5 4 10 -3 6 -1 10 5 10 6
0 8 -11 6 -25 -5 -28 8 -33 30 -11 10 11 11 15 1 19 -6 2 -8 8 -4 13 12 13 28
-18 16 -32 -7 -9 -4 -12 14 -10 13 2 30 7 37 11 8 5 11 4 7 -2 -4 -6 2 -13 12
-16 14 -3 18 -1 14 9 -3 9 1 14 12 14 9 0 14 -4 11 -9 -10 -16 23 -20 39 -5
13 14 15 14 15 0 0 -9 4 -16 8 -16 15 0 30 22 25 36 -3 8 0 14 7 14 6 0 8 -4
5 -10 -3 -5 -2 -10 4 -10 6 0 8 -6 5 -14 -3 -8 3 -16 15 -19 15 -3 19 0 16 14
-3 12 1 16 11 12 7 -3 11 -9 8 -14 -3 -5 2 -9 10 -9 9 0 16 5 16 10 0 6 7 10
15 10 8 0 14 -6 12 -12 -1 -7 7 -13 18 -13 14 0 20 6 19 23 -1 12 3 22 8 22 6
0 8 -6 5 -13 -3 -8 -1 -20 4 -28 7 -11 12 -12 29 -1 16 10 20 10 20 -1 0 -8
15 -13 40 -14 23 -1 38 2 35 8 -4 5 -1 9 5 9 6 0 8 5 5 10 -3 6 -1 10 5 10 6
0 10 -10 8 -21 -2 -15 4 -24 20 -30 17 -6 22 -5 22 7 0 8 5 12 10 9 6 -4 8
-10 6 -14 -9 -13 19 -8 32 6 8 8 9 13 2 13 -5 0 -10 4 -10 8 0 5 6 9 14 9 7 0
13 -7 13 -16 0 -34 4 -40 18 -35 8 4 12 10 9 15 -3 5 0 9 6 9 6 0 8 5 5 10 -3
6 -1 10 5 10 6 0 8 -11 6 -26 -4 -20 -1 -24 12 -22 9 2 16 11 16 21 -1 9 4 17
11 17 7 0 12 -10 11 -22 -1 -31 28 -35 42 -6 11 22 11 22 7 -4 -3 -22 0 -28
16 -28 10 0 18 3 18 8 -3 17 2 32 10 32 6 0 8 -9 6 -20 -4 -23 7 -32 47 -35
23 -2 32 2 35 16 7 26 21 24 19 -3 -1 -17 5 -24 23 -26 13 -2 21 0 18 5 -3 5
-2 15 3 23 7 11 9 7 7 -14 -1 -21 3 -30 16 -32 9 -1 15 2 11 7 -3 5 2 9 10 9
9 0 16 -7 16 -16 0 -8 5 -12 10 -9 6 3 10 1 10 -5 0 -6 5 -8 10 -5 6 4 8 11 5
16 -4 5 -1 9 4 9 6 0 11 -6 11 -14 0 -23 16 -27 31 -9 10 11 10 14 2 9 -9 -5
-11 -2 -7 8 10 25 24 19 24 -10 0 -23 3 -25 26 -20 20 5 25 4 21 -6 -3 -9 3
-14 14 -15 10 -1 19 2 19 8 0 5 4 9 10 9 5 0 7 -7 3 -15 -4 -13 1 -15 26 -10
25 4 29 2 24 -11 -5 -14 -3 -15 16 -5 12 7 19 16 16 22 -4 5 1 9 9 9 10 0 13
-7 10 -25 -4 -20 0 -25 16 -25 12 0 19 4 16 8 -2 4 -1 14 3 21 6 9 11 10 15 2
4 -6 3 -11 -2 -11 -6 0 -8 -9 -5 -20 5 -17 8 -18 21 -8 13 11 14 11 7 -1 -6
-10 -4 -12 4 -7 7 5 10 14 7 22 -3 8 1 14 8 14 9 0 12 -9 8 -26 -5 -25 -3 -26
23 -20 23 6 26 4 21 -9 -5 -14 -1 -15 24 -10 24 5 29 4 24 -9 -4 -11 0 -14 15
-13 19 1 26 10 22 30 -1 5 3 6 7 3 5 -3 7 -18 4 -33 l-5 -27 26 17 c33 21 34
21 33 -4 -1 -30 18 -34 32 -7 11 23 11 22 7 -4 -4 -32 21 -47 30 -17 9 27 25
24 19 -5 -3 -17 1 -25 16 -29 18 -5 25 4 21 26 -1 5 3 6 8 3 5 -4 8 -15 6 -26
-4 -19 5 -24 33 -21 6 1 12 -5 12 -14 0 -18 20 -16 37 5 10 13 11 12 9 -5 -3
-24 16 -48 26 -32 4 7 14 2 28 -14 16 -18 20 -19 16 -6 -3 10 -2 16 3 12 5 -3
12 1 15 7 3 7 4 1 2 -14 -1 -15 1 -25 5 -22 5 3 9 -1 9 -8 1 -7 7 -2 14 12 8
14 12 28 10 32 -3 5 2 8 11 8 10 0 13 -4 9 -12 -13 -20 -12 -47 1 -58 9 -8 16
-2 25 20 16 38 23 34 11 -6 -6 -21 -4 -33 5 -42 8 -7 14 -8 14 -2 0 5 7 10 15
10 9 0 12 -6 9 -15 -10 -24 22 -18 39 8 15 21 16 21 7 -10 -9 -34 -6 -37 34
-33 10 1 16 -2 13 -7 -3 -4 1 -14 9 -21 8 -7 14 -9 14 -4 0 4 7 17 15 28 13
17 14 16 6 -13 -10 -36 6 -51 26 -24 11 14 12 13 13 -5 0 -26 22 -37 40 -21
10 9 11 9 6 0 -4 -7 3 -17 15 -23 15 -8 19 -9 15 -1 -4 6 0 11 9 11 12 0 14
-4 5 -19 -6 -12 -6 -22 -1 -25 12 -8 43 23 36 34 -3 4 2 10 10 13 12 5 12 2 3
-18 -6 -13 -7 -36 -3 -52 l7 -28 13 25 c7 14 11 28 9 32 -3 5 2 8 11 8 10 0
13 -5 9 -12 -14 -22 -13 -56 2 -62 8 -3 13 -2 10 2 -3 4 4 13 14 20 18 11 19
10 11 -11 -6 -15 -4 -26 4 -34 10 -10 14 -7 19 13 9 34 23 30 18 -6 -5 -34 13
-41 35 -12 12 15 13 14 7 -10 -3 -15 -1 -35 5 -45 9 -15 10 -16 11 -2 0 9 7
23 16 30 14 11 16 10 14 -6 -4 -35 0 -45 16 -45 8 0 13 4 10 9 -3 4 2 17 10
27 9 10 12 13 9 6 -13 -24 -16 -70 -6 -76 11 -7 34 28 24 38 -3 3 -1 6 6 6 8
0 11 -11 9 -32 -4 -43 18 -47 36 -6 l15 33 -6 -35 c-3 -19 -6 -39 -7 -44 -2
-19 22 -15 32 6 11 21 12 20 9 -12 -2 -31 1 -35 21 -32 20 2 22 -1 17 -19 -5
-15 -4 -19 4 -15 6 4 11 1 11 -6 0 -7 9 5 20 27 17 36 19 37 14 10 -3 -16 -7
-35 -9 -42 -6 -20 8 -24 31 -8 22 14 22 14 14 -15 -5 -17 -5 -28 0 -25 4 3 11
-1 13 -7 4 -10 6 -10 6 0 1 6 6 12 12 12 6 0 9 -9 6 -20 -3 -13 0 -20 9 -20 8
0 14 4 14 8 0 5 7 17 15 28 9 11 13 13 10 4 -19 -61 -8 -91 20 -53 11 15 13
13 10 -15 -3 -38 9 -49 32 -30 14 11 16 10 11 -7 -3 -11 1 -26 9 -33 7 -8 13
-8 13 -2 0 20 19 10 22 -12 2 -13 7 -21 13 -18 5 3 9 8 8 12 -1 3 4 9 13 12
11 4 12 1 6 -12 -14 -29 -8 -46 18 -53 14 -4 21 -8 15 -8 -5 -1 4 -14 21 -29
19 -17 37 -48 48 -82 10 -30 64 -154 121 -275 166 -355 241 -543 314 -787 104
-347 160 -641 197 -1030 l17 -188 31 1 c17 1 23 3 14 6 -25 6 -27 138 -2 147
32 12 50 6 50 -16 1 -101 5 -128 19 -128 12 0 15 -37 18 -252 l2 -253 3 253
c2 235 3 253 20 250 16 -3 17 -24 18 -260 1 -252 1 -257 -20 -262 -12 -3 -22
-2 -24 2 -1 5 -28 5 -59 2 -48 -5 -61 -12 -86 -41 -23 -26 -26 -28 -14 -7 29
47 24 51 -65 46 -69 -4 -98 -11 -168 -42 -47 -21 -106 -45 -131 -54 -45 -15
-46 -15 -27 -34 30 -30 10 -87 -30 -88 -9 0 -11 26 -6 113 l6 112 -41 81 c-29
58 -60 101 -107 147 -68 67 -164 129 -164 106 0 -9 -4 -8 -12 3 -17 21 -59 30
-75 16 -10 -8 -13 -6 -13 6 0 9 -7 16 -15 16 -8 0 -15 -5 -15 -12 0 -6 -7 -3
-15 8 -14 19 -15 18 -21 -5 l-7 -23 -12 22 -12 23 -13 -23 c-11 -21 -13 -21
-22 -6 -5 9 -14 14 -19 11 -5 -4 -7 -10 -4 -15 3 -5 1 -11 -5 -15 -6 -3 -10 4
-10 17 l-1 23 -21 -25 c-15 -19 -22 -21 -26 -11 -3 10 -8 7 -18 -10 -12 -21
-13 -22 -14 -4 0 17 -2 18 -15 5 -8 -8 -16 -25 -18 -37 -2 -12 -7 -26 -11 -30
-5 -5 -7 7 -4 24 5 38 -7 44 -18 11 l-8 -23 -6 25 c-5 22 -7 20 -19 -22 -15
-52 -31 -65 -24 -20 3 25 3 26 -6 5 -6 -13 -17 -23 -26 -23 -8 0 -15 -7 -15
-15 0 -8 0 -18 -1 -22 0 -5 10 -11 23 -15 15 -4 17 -6 6 -7 -28 -2 -67 -23
-64 -35 2 -6 1 -8 -1 -3 -3 4 -9 7 -14 7 -10 0 -8 -22 4 -31 4 -3 -5 -11 -20
-17 -26 -11 -27 -11 -9 3 11 8 14 15 7 15 -7 0 -9 5 -5 13 4 6 -1 5 -10 -4
-10 -9 -19 -25 -21 -35 -2 -10 -4 -19 -5 -19 -9 0 -5 -35 3 -35 7 0 3 -7 -7
-15 -20 -15 -20 -15 0 -16 15 0 13 -3 -8 -10 -29 -11 -49 -42 -20 -33 9 3 2
-4 -15 -16 -18 -12 -33 -23 -33 -25 0 -1 12 0 28 2 27 4 26 4 -4 -11 -50 -23
-49 -34 4 -30 l47 3 -43 -8 c-58 -10 -78 -31 -31 -32 l34 -1 -31 -9 c-34 -10
-65 -37 -42 -36 38 1 50 -6 19 -12 -48 -8 -49 -26 -2 -40 22 -6 43 -15 45 -20
3 -5 -13 -2 -35 6 -37 12 -43 12 -60 -3 -18 -16 -19 -16 -19 0 0 9 4 24 9 34
15 28 41 89 41 97 0 3 -6 3 -12 0 -7 -4 -4 1 6 9 11 9 17 19 13 23 -4 3 -16
-2 -27 -12 -16 -15 -20 -15 -15 -3 4 10 -1 18 -17 22 l-23 7 21 9 c26 10 38
26 25 34 -5 4 -13 2 -16 -4 -4 -6 -16 -8 -28 -5 -17 5 -19 4 -7 -4 12 -8 12
-13 2 -23 -15 -15 -16 -32 0 -22 7 4 8 3 4 -4 -4 -7 -17 -12 -29 -12 -16 0
-18 -3 -9 -12 7 -7 12 -19 12 -28 -1 -12 -4 -11 -16 5 l-16 20 5 -20 c3 -11 8
-31 12 -45 l6 -25 -20 25 c-23 28 -28 15 -6 -14 18 -23 19 -36 4 -36 -5 0 -7
5 -4 10 3 6 2 10 -3 10 -5 0 -14 10 -20 23 -7 13 -11 16 -11 7 -1 -8 8 -30 19
-47 14 -23 25 -31 37 -27 15 5 16 4 3 -5 -15 -11 -48 -16 -38 -6 3 3 -4 17
-16 30 -11 13 -22 22 -24 20 -5 -5 18 -47 42 -75 19 -22 19 -23 1 -10 -44 33
-54 44 -48 53 3 6 1 7 -5 3 -19 -11 -14 -23 26 -68 24 -26 29 -36 15 -27 -13
8 -23 17 -23 22 0 4 -4 5 -10 2 -5 -3 -10 -2 -10 4 0 6 -10 16 -22 22 l-22 12
18 -28 c10 -15 30 -39 45 -52 25 -24 24 -23 -10 1 -20 14 -39 23 -44 18 -5 -4
-5 -2 -1 5 3 6 1 15 -5 19 -8 4 -9 3 -5 -4 4 -7 2 -12 -5 -12 -7 0 0 -14 17
-32 16 -18 21 -26 12 -19 -9 7 -23 9 -29 5 -7 -4 -9 -3 -5 4 3 6 1 14 -5 18
-8 4 -9 3 -5 -4 8 -13 -5 -16 -20 -4 -5 4 9 -10 31 -31 22 -21 31 -34 20 -29
-11 5 -26 7 -34 4 -8 -2 -11 -1 -8 4 3 5 -7 10 -21 11 -25 1 -24 0 11 -21 50
-31 53 -34 23 -32 -14 0 -28 7 -31 13 -2 7 -10 13 -17 13 -9 0 -8 -3 2 -10 13
-9 13 -10 0 -10 -10 0 -7 -7 10 -21 l25 -20 -47 4 c-27 3 -48 3 -48 1 0 -2 18
-12 40 -21 42 -19 56 -38 18 -24 -13 4 -34 5 -48 1 l-25 -6 28 -7 c33 -9 36
-24 5 -24 -70 -1 -74 -3 -35 -18 48 -17 60 -27 27 -24 -14 1 -41 1 -60 0 l-35
-3 37 -12 c48 -15 55 -23 21 -24 -32 -2 -74 -10 -80 -15 -2 -3 25 -8 59 -12
l63 -8 -64 -8 c-78 -10 -97 -17 -51 -19 19 -1 44 -5 54 -9 18 -7 18 -8 3 -14
-9 -3 -17 -2 -17 2 0 9 -79 -7 -92 -18 -5 -4 8 -5 27 -3 50 6 43 -14 -10 -27
-49 -12 -63 -27 -17 -18 15 3 34 2 41 -3 9 -5 0 -10 -27 -15 -22 -3 -48 -12
-58 -20 -16 -11 -13 -12 23 -6 23 5 47 5 54 1 9 -6 -41 -21 -83 -24 -4 -1 -12
-6 -17 -11 -7 -7 9 -9 47 -8 31 1 48 0 37 -3 -78 -18 -106 -28 -117 -42 -11
-13 -10 -14 10 -3 13 7 33 11 45 9 17 -3 13 -7 -19 -16 -23 -7 -48 -20 -55
-29 -13 -15 -12 -15 9 -4 13 7 35 11 50 9 23 -4 21 -6 -20 -17 -26 -7 -55 -22
-64 -32 -17 -19 -17 -19 12 -4 31 16 84 20 84 7 0 -4 -11 -8 -24 -8 -28 0
-106 -33 -106 -45 0 -4 16 -1 35 7 50 21 43 2 -7 -21 -24 -11 -43 -26 -43 -33
0 -8 -9 -20 -19 -28 -23 -16 -13 -19 15 -3 26 13 66 21 53 10 -5 -4 -25 -14
-44 -21 -47 -18 -62 -30 -56 -46 3 -8 -4 -19 -15 -25 -11 -6 -18 -13 -15 -16
3 -4 14 1 25 11 10 9 28 18 40 21 11 2 26 7 31 10 6 3 10 4 10 0 0 -3 -20 -14
-45 -25 -49 -21 -59 -35 -20 -28 13 3 22 1 19 -3 -3 -5 -11 -9 -18 -9 -16 0
-98 -61 -92 -68 3 -3 1 -11 -5 -19 -15 -18 -4 -16 29 4 34 21 18 5 -30 -30
-20 -15 -44 -41 -52 -58 -18 -37 -20 -53 -6 -44 6 4 8 10 6 14 -3 3 4 7 15 7
19 0 18 -1 -3 -17 -12 -10 -27 -17 -33 -16 -5 1 -9 -8 -9 -20 1 -12 -1 -21 -5
-20 -3 1 -8 -2 -10 -8 -3 -5 -13 -19 -23 -29 -10 -11 -18 -23 -18 -27 0 -4
-21 -44 -46 -89 -25 -45 -47 -87 -48 -94 -1 -6 -12 -26 -25 -44 -20 -29 -23
-42 -18 -93 3 -33 3 -58 0 -55 -5 5 -11 33 -12 60 -2 42 -15 2 -14 -42 l1 -47
-8 40 c-7 35 -8 31 -6 -27 1 -36 -2 -64 -6 -62 -4 3 -8 14 -8 25 0 11 -5 17
-10 14 -6 -4 -8 -9 -6 -13 9 -15 15 -82 8 -82 -5 0 -9 6 -10 13 -1 21 -11 59
-17 65 -3 3 -5 -12 -6 -34 -1 -35 -2 -36 -10 -14 -6 17 -7 4 -3 -40 5 -68 -4
-75 -17 -13 -7 33 -8 30 -5 -17 3 -30 7 -63 11 -73 4 -10 3 -17 -4 -17 -6 0
-10 3 -9 8 0 4 -1 14 -4 22 -4 8 -9 24 -13 35 -15 41 -16 -5 -1 -54 19 -64 5
-67 -17 -3 l-16 47 2 -38 c1 -21 5 -41 9 -43 5 -3 6 -10 2 -15 -3 -5 -1 -16 6
-24 7 -9 8 -15 1 -19 -6 -4 -17 14 -26 41 l-15 48 5 -45 c2 -25 7 -56 10 -70
4 -18 1 -15 -12 10 -22 46 -30 16 -9 -34 21 -50 3 -45 -23 7 -22 43 -22 44 -6
-33 2 -8 6 -24 10 -35 6 -17 3 -16 -14 5 l-22 25 5 -32 c2 -18 14 -46 26 -63
33 -47 17 -35 -25 18 -21 26 -35 38 -30 27 4 -11 8 -29 9 -40 1 -12 8 -19 16
-17 8 2 12 0 8 -3 -4 -4 -3 -17 3 -29 5 -11 -7 -3 -27 19 -21 23 -34 31 -29
20 4 -11 8 -25 8 -32 0 -7 5 -9 10 -6 6 3 7 2 4 -4 -4 -6 0 -19 8 -29 27 -36
15 -34 -21 4 -28 29 -33 32 -23 12 7 -14 12 -26 11 -27 -6 -9 1 -24 24 -47 15
-14 24 -26 20 -26 -3 0 -22 16 -40 35 -33 34 -61 50 -37 21 7 -8 16 -29 21
-47 l10 -33 -37 35 c-29 28 -33 30 -19 8 9 -14 13 -29 9 -32 -3 -4 -2 -7 4 -7
5 0 10 -6 10 -14 0 -12 -4 -12 -24 1 -12 8 -23 20 -23 26 0 6 -3 7 -7 4 -3 -4
0 -15 9 -24 8 -10 22 -31 32 -47 l19 -29 -39 23 c-28 17 -35 19 -25 7 7 -9 10
-17 5 -17 -4 0 3 -12 17 -26 l24 -26 -36 20 c-36 20 -37 20 -32 1 3 -11 20
-31 37 -45 l31 -25 -42 20 c-50 25 -50 25 -50 7 0 -8 18 -24 39 -36 52 -29 48
-33 -8 -9 -25 12 -48 18 -51 15 -4 -3 -1 -6 6 -6 7 0 10 -4 6 -10 -3 -5 8 -16
25 -25 41 -21 38 -27 -5 -9 -19 7 -39 14 -45 14 -13 0 19 -35 40 -43 8 -4 -3
-4 -25 -2 -30 4 -35 3 -20 -4 11 -5 16 -10 10 -10 -5 -1 -3 -6 5 -11 12 -8 11
-10 -7 -10 -12 0 -25 -5 -29 -12 -5 -7 -3 -8 6 -3 8 5 11 3 8 -6 -3 -8 -16
-13 -29 -12 -13 1 -18 0 -11 -3 17 -8 15 -34 -4 -34 -8 0 -13 -4 -9 -10 3 -5
12 -7 20 -3 8 3 15 0 15 -6 0 -6 -17 -12 -37 -12 -24 -1 -29 -3 -15 -6 12 -2
22 -8 22 -13 0 -5 -10 -11 -22 -13 -19 -3 -17 -5 7 -6 l30 -3 -35 -13 -35 -14
40 4 c22 2 32 2 22 -1 -9 -3 -15 -9 -12 -14 3 -4 -5 -6 -17 -2 -19 5 -20 4 -8
-10 8 -9 19 -15 25 -13 5 1 7 0 2 -2 -4 -3 -4 -10 0 -16 4 -7 0 -8 -10 -4 -46
19 -51 18 -27 -3 14 -12 20 -19 14 -16 -7 3 -18 -10 -27 -33 -18 -43 -58 -91
-76 -91 -7 0 -9 -5 -6 -11 4 -5 -3 -19 -15 -29 -12 -10 -19 -24 -15 -29 3 -6
-2 -11 -12 -11 -17 -1 -16 -2 2 -17 18 -14 18 -15 1 -9 -12 4 -25 -1 -37 -15
-19 -22 -26 -45 -11 -35 4 2 14 1 22 -5 13 -7 12 -9 -2 -9 -10 0 -18 -6 -18
-14 0 -8 -6 -16 -12 -19 -10 -3 -9 -8 2 -22 8 -10 10 -16 3 -12 -20 12 -27
-60 -15 -154 11 -92 43 -183 73 -210 10 -9 15 -19 12 -23 -3 -3 2 -8 11 -12 9
-3 16 -13 16 -20 0 -8 7 -17 15 -20 8 -4 15 -12 15 -20 0 -8 9 -14 20 -14 11
0 20 -7 20 -16 0 -8 4 -13 9 -10 4 3 19 -3 31 -14 12 -11 27 -17 33 -13 6 3 7
1 3 -5 -3 -6 3 -16 14 -22 11 -6 20 -7 20 -3 0 4 5 0 11 -9 5 -10 16 -15 24
-12 8 4 15 1 15 -5 0 -6 9 -11 20 -11 11 0 20 -5 20 -11 0 -6 9 -9 20 -6 11 3
22 2 25 -2 2 -4 29 -13 60 -20 91 -21 241 6 280 49 17 19 18 19 46 -2 15 -12
26 -24 24 -28 -9 -15 18 -187 38 -239 35 -96 145 -193 302 -268 128 -60 273
-57 400 9 227 118 446 374 780 913 81 131 361 609 412 705 22 41 85 156 140
255 102 184 129 233 298 555 103 196 274 538 315 630 13 30 39 89 58 130 77
169 177 433 217 575 24 82 52 314 47 378 -7 85 -3 127 14 172 6 16 3 15 -14
-5 -12 -14 -21 -20 -22 -13 0 6 11 25 25 41 36 43 46 76 34 112 -10 28 -12 29
-27 12 -10 -10 -13 -12 -8 -5 16 24 -4 63 -53 101 l-48 38 33 22 c65 42 68 58
72 348 l4 262 62 7 62 6 -3 131 c-3 144 -31 391 -69 598 -90 490 -252 984
-454 1385 -105 210 -159 291 -271 411 -48 52 -115 136 -150 187 -233 342 -519
668 -804 915 -652 565 -1474 913 -2349 997 -197 19 -606 18 -801 -1z m295
-334 c0 -5 -9 -10 -20 -10 -11 0 -20 5 -20 10 0 6 9 10 20 10 11 0 20 -4 20
-10z m112 -2 c-17 -8 -26 -8 -34 0 -9 9 -4 12 23 11 32 0 33 -1 11 -11z m128
2 c0 -5 -9 -10 -20 -10 -11 0 -20 5 -20 10 0 6 9 10 20 10 11 0 20 -4 20 -10z
m105 4 c12 -5 14 -9 4 -14 -14 -9 -39 -2 -39 11 0 11 12 11 35 3z m-575 -13
c0 -12 -30 -22 -43 -14 -7 4 -3 9 9 14 26 10 34 10 34 0z m107 -2 c-14 -8 -22
-8 -30 0 -8 8 -3 11 19 11 25 -1 27 -2 11 -11z m597 2 c7 -11 -14 -20 -31 -13
-7 2 -13 8 -13 13 0 12 37 12 44 0z m111 -11 c18 -8 17 -9 -7 -9 -16 -1 -28 4
-28 9 0 12 8 12 35 0z m-948 -11 c-14 -8 -22 -8 -30 0 -8 8 -3 11 19 11 25 -1
27 -2 11 -11z m426 0 c7 0 3 -4 -8 -8 -22 -9 -35 -5 -35 11 0 5 7 7 16 4 9 -3
21 -6 27 -7z m120 0 c7 0 3 -4 -8 -8 -24 -10 -47 -3 -39 11 3 5 13 7 21 4 8
-3 20 -6 26 -7z m103 -11 c-18 -10 -39 -2 -31 12 3 4 15 6 26 3 19 -5 19 -7 5
-15z m-761 2 c-3 -5 -14 -10 -23 -10 -15 0 -15 2 -2 10 20 13 33 13 25 0z
m305 -1 c0 -10 -30 -20 -41 -13 -5 3 -7 9 -5 13 6 9 46 9 46 0z m120 1 c0 -5
-11 -10 -25 -10 -14 0 -25 5 -25 10 0 6 11 10 25 10 14 0 25 -4 25 -10z m460
0 c13 -8 12 -10 -2 -10 -10 0 -21 0 -25 -1 -4 0 -9 4 -11 10 -5 14 18 14 38 1z
m292 -2 c-9 -9 -15 -9 -24 0 -9 9 -7 12 12 12 19 0 21 -3 12 -12z m-992 -9 c0
-10 -30 -20 -41 -13 -5 3 -7 9 -4 14 6 10 45 9 45 -1z m825 1 c3 -6 -5 -10
-19 -10 -14 0 -28 5 -31 10 -3 6 5 10 19 10 14 0 28 -4 31 -10z m-1125 -10
c-8 -5 -19 -10 -25 -10 -5 0 -3 5 5 10 8 5 20 10 25 10 6 0 3 -5 -5 -10z m172
-13 c-24 -11 -38 -5 -28 11 3 6 16 8 28 4 l22 -5 -22 -10z m1058 13 c12 -8 11
-10 -7 -10 -12 0 -25 5 -28 10 -8 13 15 13 35 0z m180 6 c0 -11 -19 -15 -25
-6 -3 5 1 10 9 10 9 0 16 -2 16 -4z m-822 -15 c11 -7 10 -10 -3 -15 -20 -7
-38 1 -30 15 7 11 16 11 33 0z m120 0 c11 -7 10 -10 -3 -15 -19 -7 -35 0 -35
15 0 11 20 12 38 0z m117 0 c3 -5 1 -13 -5 -16 -15 -9 -43 3 -35 15 8 13 32
13 40 1z m115 -12 c0 -5 -9 -9 -20 -9 -22 0 -27 16 -7 23 15 5 27 -1 27 -14z
m420 0 c0 -12 -37 -12 -44 0 -3 4 -3 11 0 14 8 7 44 -4 44 -14z m-1290 2 c0
-12 -29 -23 -41 -15 -5 3 -7 10 -4 15 8 12 45 12 45 0z m284 3 c20 -8 11 -24
-15 -24 -19 0 -25 11 -12 23 8 8 8 8 27 1z m126 -3 c0 -11 -26 -22 -34 -14
-12 12 -5 23 14 23 11 0 20 -4 20 -9z m564 3 c22 -9 20 -24 -3 -24 -21 0 -34
13 -24 24 8 7 8 7 27 0z m476 2 c0 -11 -19 -15 -25 -6 -3 5 1 10 9 10 9 0 16
-2 16 -4z m-1280 -32 c-12 -13 -40 -9 -40 6 0 11 22 18 38 12 9 -3 10 -8 2
-18z m929 17 c9 -6 10 -10 2 -16 -16 -9 -44 2 -36 15 8 12 16 12 34 1z m285 3
c22 -9 20 -24 -3 -24 -21 0 -34 13 -24 24 8 7 8 7 27 0z m-1494 -14 c0 -5 -7
-10 -15 -10 -8 0 -18 0 -22 -1 -4 0 -9 4 -11 10 -2 6 8 11 22 11 14 0 26 -4
26 -10z m1330 -10 c0 -15 -29 -19 -40 -5 -8 10 -8 14 2 18 16 5 38 -2 38 -13z
m-1165 0 c3 -6 -1 -13 -10 -16 -19 -8 -30 0 -20 15 8 14 22 14 30 1z m415 0
c0 -5 -9 -10 -20 -10 -11 0 -20 5 -20 10 0 6 9 10 20 10 11 0 20 -4 20 -10z
m107 -1 c-14 -8 -22 -8 -30 0 -8 8 -3 11 19 11 25 -1 27 -2 11 -11z m113 1
c-19 -13 -30 -13 -30 0 0 6 10 10 23 10 18 0 19 -2 7 -10z m125 0 c3 -5 -3
-10 -14 -10 -11 0 -23 5 -26 10 -3 6 3 10 14 10 11 0 23 -4 26 -10z m691 -5
c18 -15 18 -15 -5 -13 -14 2 -26 9 -29 16 -5 17 10 15 34 -3z m-1736 -4 c0 -5
-6 -11 -12 -14 -18 -6 -39 3 -32 14 7 12 44 12 44 0z m580 -1 c-20 -13 -40
-13 -40 0 0 6 12 10 28 10 21 0 24 -2 12 -10z m571 1 c-8 -5 -20 -7 -28 -4
-21 8 -15 13 15 13 20 0 23 -3 13 -9z m113 -11 c-21 -8 -37 -3 -29 10 3 4 15
6 27 2 21 -5 21 -6 2 -12z m295 11 c9 -6 10 -10 2 -16 -16 -9 -44 2 -36 15 8
12 16 12 34 1z m-1379 -10 c0 -5 -6 -11 -12 -14 -18 -6 -39 3 -32 14 7 12 44
12 44 0z m277 -2 c-14 -8 -22 -8 -30 0 -8 8 -3 11 19 11 25 -1 27 -2 11 -11z
m922 -9 c-15 -10 -41 -1 -34 10 3 5 14 6 26 3 15 -4 17 -8 8 -13z m-1029 0
c-20 -13 -40 -13 -40 0 0 6 12 10 28 10 21 0 24 -2 12 -10z m395 -12 c-19 -11
-30 -5 -21 11 4 6 14 7 22 4 15 -5 14 -7 -1 -15z m120 13 c7 -12 -12 -24 -25
-16 -11 7 -4 25 10 25 5 0 11 -4 15 -9z m107 -13 c-6 -6 -16 -7 -22 -3 -9 6
-9 9 1 16 17 10 34 0 21 -13z m706 5 c2 -8 -5 -13 -17 -13 -21 0 -35 13 -24
24 10 10 36 3 41 -11z m172 7 c12 -8 9 -10 -12 -10 -16 0 -28 5 -28 10 0 13
20 13 40 0z m-1965 -10 c-3 -5 -15 -10 -26 -10 -11 0 -17 5 -14 10 3 6 15 10
26 10 11 0 17 -4 14 -10z m173 -6 c-9 -9 -21 -13 -27 -10 -20 13 -11 26 16 26
25 0 26 -1 11 -16z m582 7 c0 -11 -26 -22 -34 -14 -12 12 -5 23 14 23 11 0 20
-4 20 -9z m450 -1 c0 -5 -7 -10 -15 -10 -8 0 -15 5 -15 10 0 6 7 10 15 10 8 0
15 -4 15 -10z m112 -12 c-6 -6 -16 -7 -22 -3 -9 6 -9 9 1 16 17 10 34 0 21
-13z m298 12 c12 -8 9 -10 -12 -10 -16 0 -28 5 -28 10 0 13 20 13 40 0z
m-1273 -11 c-14 -8 -22 -8 -30 0 -8 8 -3 11 19 11 25 -1 27 -2 11 -11z m298 1
c-3 -5 -13 -10 -21 -10 -8 0 -14 5 -14 10 0 6 9 10 21 10 11 0 17 -4 14 -10z
m796 -13 c-5 -5 -18 -7 -28 -3 -14 6 -15 9 -4 16 19 11 46 1 32 -13z m469 2
c0 -5 -9 -9 -20 -9 -19 0 -26 11 -14 23 8 8 34 -3 34 -14z m172 -7 c-19 -6
-44 6 -37 18 4 7 14 6 28 -2 14 -7 17 -13 9 -16z m-2192 -2 c-19 -12 -40 -13
-40 -1 0 9 40 20 50 13 2 -2 -2 -7 -10 -12z m180 10 c0 -12 -28 -25 -36 -17
-9 9 6 27 22 27 8 0 14 -5 14 -10z m455 0 c-3 -5 -13 -10 -21 -10 -8 0 -14 5
-14 10 0 6 9 10 21 10 11 0 17 -4 14 -10z m1210 0 c3 -5 -3 -10 -14 -10 -11 0
-23 5 -26 10 -3 6 3 10 14 10 11 0 23 -4 26 -10z m-1485 -4 c0 -9 -40 -13 -46
-5 -3 5 6 9 20 9 14 0 26 -2 26 -4z m164 -5 c3 -5 -1 -11 -9 -15 -15 -6 -29 7
-18 18 9 9 21 8 27 -3z m396 -1 c-19 -13 -30 -13 -30 0 0 6 10 10 23 10 18 0
19 -2 7 -10z m130 6 c0 -9 -40 -13 -46 -5 -3 5 6 9 20 9 14 0 26 -2 26 -4z
m101 -5 c-8 -5 -20 -7 -28 -4 -21 8 -15 13 15 13 20 0 23 -3 13 -9z m119 5 c0
-9 -30 -14 -35 -6 -4 6 3 10 14 10 12 0 21 -2 21 -4z m120 -12 c0 -2 -12 -4
-26 -4 -14 0 -23 4 -20 9 6 8 46 4 46 -5z m280 6 c0 -5 -9 -10 -20 -10 -11 0
-20 5 -20 10 0 6 9 10 20 10 11 0 20 -4 20 -10z m-857 -7 c-7 -2 -19 -2 -25 0
-7 3 -2 5 12 5 14 0 19 -2 13 -5z m677 -3 c12 -8 11 -10 -7 -10 -13 0 -23 5
-23 10 0 13 11 13 30 0z m282 -12 c-6 -6 -16 -7 -22 -3 -9 6 -9 9 1 16 17 10
34 0 21 -13z m178 12 c12 -8 11 -10 -7 -10 -12 0 -25 5 -28 10 -8 13 15 13 35
0z m178 -8 c3 -9 -2 -13 -14 -10 -9 1 -19 9 -22 16 -3 9 2 13 14 10 9 -1 19
-9 22 -16z m174 -10 c-19 -6 -44 6 -37 18 4 7 14 6 28 -2 14 -7 17 -13 9 -16z
m-2412 -2 c-19 -12 -40 -13 -40 -1 0 9 40 20 50 13 2 -2 -2 -7 -10 -12z m178
8 c-3 -7 -11 -13 -18 -13 -7 0 -15 6 -17 13 -3 7 4 12 17 12 13 0 20 -5 18
-12z m172 2 c-20 -13 -40 -13 -40 0 0 6 12 10 28 10 21 0 24 -2 12 -10z m175
0 c-3 -5 -13 -10 -21 -10 -8 0 -14 5 -14 10 0 6 9 10 21 10 11 0 17 -4 14 -10z
m285 6 c0 -9 -30 -14 -35 -6 -4 6 3 10 14 10 12 0 21 -2 21 -4z m900 -6 c12
-8 11 -10 -7 -10 -13 0 -23 5 -23 10 0 13 11 13 30 0z m-1020 -10 c-19 -13
-30 -13 -30 0 0 6 10 10 23 10 18 0 19 -2 7 -10z m400 2 c0 -13 -12 -22 -22
-16 -10 6 -1 24 13 24 5 0 9 -4 9 -8z m115 -2 c3 -5 -3 -10 -14 -10 -12 0 -21
5 -21 10 0 6 6 10 14 10 8 0 18 -4 21 -10z m108 4 c11 -11 -3 -24 -18 -18 -8
4 -12 10 -9 15 6 11 18 12 27 3z m108 -17 c-13 -13 -26 -3 -16 12 3 6 11 8 17
5 6 -4 6 -10 -1 -17z m571 8 c0 -5 -5 -11 -11 -13 -6 -2 -11 4 -11 13 0 9 5
15 11 13 6 -2 11 -8 11 -13z m178 5 c12 -8 11 -10 -7 -10 -12 0 -25 5 -28 10
-8 13 15 13 35 0z m-2100 -20 c0 -14 -15 -19 -29 -10 -17 10 -5 31 14 23 8 -3
15 -9 15 -13z m170 10 c-20 -13 -43 -13 -35 0 3 6 16 10 28 10 18 0 19 -2 7
-10z m170 0 c0 -5 -9 -10 -21 -10 -11 0 -17 5 -14 10 3 6 13 10 21 10 8 0 14
-4 14 -10z m160 0 c0 -5 -5 -10 -11 -10 -5 0 -7 5 -4 10 3 6 8 10 11 10 2 0 4
-4 4 -10z m292 -12 c-6 -6 -16 -7 -22 -3 -9 6 -9 9 1 16 17 10 34 0 21 -13z
m110 10 c-9 -9 -15 -9 -24 0 -9 9 -7 12 12 12 19 0 21 -3 12 -12z m572 3 c3
-5 -1 -11 -9 -15 -15 -6 -29 7 -18 18 9 9 21 8 27 -3z m276 5 c0 -11 -19 -15
-25 -6 -3 5 1 10 9 10 9 0 16 -2 16 -4z m524 -5 c3 -5 0 -11 -8 -14 -15 -6
-26 1 -26 15 0 11 27 10 34 -1z m-689 -11 c3 -5 -3 -10 -15 -10 -12 0 -18 5
-15 10 3 6 10 10 15 10 5 0 12 -4 15 -10z m452 -16 c-3 -4 -14 -3 -24 0 -15 6
-15 8 -3 16 16 10 39 -4 27 -16z m413 16 c12 -8 11 -10 -7 -10 -12 0 -25 5
-28 10 -8 13 15 13 35 0z m-2630 -14 c-6 -8 -18 -12 -26 -9 -19 7 -7 23 18 23
17 0 18 -3 8 -14z m410 5 c0 -14 -18 -23 -31 -15 -8 4 -7 9 2 15 18 11 29 11
29 0z m165 -1 c-3 -5 -13 -10 -21 -10 -8 0 -12 5 -9 10 3 6 13 10 21 10 8 0
12 -4 9 -10z m287 -2 c-9 -9 -15 -9 -24 0 -9 9 -7 12 12 12 19 0 21 -3 12 -12z
m408 -4 c0 -2 -12 -4 -26 -4 -14 0 -23 4 -20 9 6 8 46 4 46 -5z m95 6 c3 -5
-1 -10 -9 -10 -9 0 -16 5 -16 10 0 6 4 10 9 10 6 0 13 -4 16 -10z m507 -12
c-6 -6 -16 -7 -22 -3 -9 6 -9 9 1 16 17 10 34 0 21 -13z m175 16 c-3 -3 -12
-4 -19 -1 -8 3 -5 6 6 6 11 1 17 -2 13 -5z m348 -4 c3 -5 -3 -10 -14 -10 -11
0 -23 5 -26 10 -3 6 3 10 14 10 11 0 23 -4 26 -10z m-2155 -10 c-20 -13 -40
-13 -40 0 0 6 12 10 28 10 21 0 24 -2 12 -10z m515 0 c-3 -5 -13 -10 -21 -10
-8 0 -14 5 -14 10 0 6 9 10 21 10 11 0 17 -4 14 -10z m275 0 c12 -8 11 -10 -7
-10 -13 0 -23 5 -23 10 0 13 11 13 30 0z m120 6 c0 -9 -30 -14 -35 -6 -4 6 3
10 14 10 12 0 21 -2 21 -4z m333 -3 c-7 -2 -19 -2 -25 0 -7 3 -2 5 12 5 14 0
19 -2 13 -5z m107 -3 c0 -5 -4 -10 -9 -10 -6 0 -13 5 -16 10 -3 6 1 10 9 10 9
0 16 -4 16 -10z m974 1 c3 -5 -1 -12 -10 -15 -22 -9 -24 -8 -24 9 0 16 25 21
34 6z m-2494 -10 c0 -14 -18 -23 -30 -16 -6 4 -8 11 -5 16 8 12 35 12 35 0z
m395 -1 c-3 -5 -11 -10 -16 -10 -6 0 -7 5 -4 10 3 6 11 10 16 10 6 0 7 -4 4
-10z m450 0 c-3 -5 -10 -10 -16 -10 -5 0 -9 5 -9 10 0 6 7 10 16 10 8 0 12 -4
9 -10z m785 6 c0 -11 -19 -15 -25 -6 -3 5 1 10 9 10 9 0 16 -2 16 -4z m290 -6
c0 -5 -7 -10 -15 -10 -8 0 -15 5 -15 10 0 6 7 10 15 10 8 0 15 -4 15 -10z
m167 4 c-3 -3 -12 -4 -19 -1 -8 3 -5 6 6 6 11 1 17 -2 13 -5z m173 -4 c0 -5
-6 -10 -14 -10 -8 0 -18 5 -21 10 -3 6 3 10 14 10 12 0 21 -4 21 -10z m400 0
c8 -5 11 -12 8 -16 -10 -9 -38 3 -38 16 0 12 10 13 30 0z m-2820 -9 c0 -9 -24
-21 -41 -21 -16 0 -10 18 9 23 28 8 32 7 32 -2z m395 -1 c-3 -5 -13 -10 -21
-10 -8 0 -14 5 -14 10 0 6 9 10 21 10 11 0 17 -4 14 -10z m330 0 c-3 -5 -10
-10 -16 -10 -5 0 -9 5 -9 10 0 6 7 10 16 10 8 0 12 -4 9 -10z m175 0 c0 -5 -7
-10 -16 -10 -8 0 -12 5 -9 10 3 6 10 10 16 10 5 0 9 -4 9 -10z m1000 0 c0 -5
-4 -10 -9 -10 -6 0 -13 5 -16 10 -3 6 1 10 9 10 9 0 16 -4 16 -10z m690 0 c12
-8 11 -10 -7 -10 -12 0 -25 5 -28 10 -8 13 15 13 35 0z m-2370 -10 c-20 -13
-43 -13 -35 0 3 6 16 10 28 10 18 0 19 -2 7 -10z m391 -13 c-13 -13 -26 -3
-16 12 3 6 11 8 17 5 6 -4 6 -10 -1 -17z m573 14 c3 -5 -1 -11 -9 -15 -15 -6
-29 7 -18 18 9 9 21 8 27 -3z m111 -1 c-3 -5 -13 -10 -21 -10 -8 0 -14 5 -14
10 0 6 9 10 21 10 11 0 17 -4 14 -10z m107 -2 c-9 -9 -15 -9 -24 0 -9 9 -7 12
12 12 19 0 21 -3 12 -12z m110 0 c-9 -9 -15 -9 -24 0 -9 9 -7 12 12 12 19 0
21 -3 12 -12z m118 2 c0 -5 -9 -10 -21 -10 -11 0 -17 5 -14 10 3 6 13 10 21
10 8 0 14 -4 14 -10z m385 0 c3 -5 -1 -10 -9 -10 -9 0 -16 5 -16 10 0 6 4 10
9 10 6 0 13 -4 16 -10z m175 0 c0 -5 -7 -10 -15 -10 -8 0 -15 5 -15 10 0 6 7
10 15 10 8 0 15 -4 15 -10z m160 0 c0 -5 -4 -10 -9 -10 -6 0 -13 5 -16 10 -3
6 1 10 9 10 9 0 16 -4 16 -10z m411 -6 c11 -14 10 -15 -11 -12 -13 1 -25 9
-28 16 -5 17 23 15 39 -4z m-2706 -4 c3 -6 -1 -13 -10 -16 -19 -8 -30 0 -20
15 8 14 22 14 30 1z m390 0 c-3 -5 -10 -10 -16 -10 -5 0 -9 5 -9 10 0 6 7 10
16 10 8 0 12 -4 9 -10z m345 0 c-19 -13 -30 -13 -30 0 0 6 10 10 23 10 18 0
19 -2 7 -10z m280 0 c0 -5 -7 -10 -15 -10 -8 0 -15 5 -15 10 0 6 7 10 15 10 8
0 15 -4 15 -10z m670 0 c0 -5 -6 -10 -14 -10 -8 0 -18 5 -21 10 -3 6 3 10 14
10 12 0 21 -4 21 -10z m785 0 c3 -5 -1 -10 -9 -10 -8 0 -18 5 -21 10 -3 6 1
10 9 10 8 0 18 -4 21 -10z m-2240 -10 c-3 -5 -13 -10 -21 -10 -8 0 -14 5 -14
10 0 6 9 10 21 10 11 0 17 -4 14 -10z m675 0 c0 -5 -7 -10 -15 -10 -8 0 -15 5
-15 10 0 6 7 10 15 10 8 0 15 -4 15 -10z m890 0 c0 -5 -7 -10 -15 -10 -8 0
-15 5 -15 10 0 6 7 10 15 10 8 0 15 -4 15 -10z m270 0 c0 -5 -4 -10 -10 -10
-5 0 -10 5 -10 10 0 6 5 10 10 10 6 0 10 -4 10 -10z m175 0 c3 -5 -1 -10 -9
-10 -9 0 -16 5 -16 10 0 6 4 10 9 10 6 0 13 -4 16 -10z m165 0 c13 -8 13 -10
-2 -10 -9 0 -20 5 -23 10 -8 13 5 13 25 0z m235 0 c3 -5 -1 -10 -9 -10 -8 0
-18 5 -21 10 -3 6 1 10 9 10 8 0 18 -4 21 -10z m230 -1 c11 -17 0 -20 -21 -4
-17 13 -17 14 -2 15 9 0 20 -5 23 -11z m-3048 -16 c-9 -9 -20 -13 -24 -9 -4 4
-1 11 7 16 25 16 35 11 17 -7z m238 7 c-3 -5 -13 -10 -21 -10 -8 0 -14 5 -14
10 0 6 9 10 21 10 11 0 17 -4 14 -10z m220 0 c-3 -5 -11 -10 -16 -10 -6 0 -7
5 -4 10 3 6 11 10 16 10 6 0 7 -4 4 -10z m180 0 c-3 -5 -13 -10 -21 -10 -8 0
-14 5 -14 10 0 6 9 10 21 10 11 0 17 -4 14 -10z m168 3 c-7 -2 -19 -2 -25 0
-7 3 -2 5 12 5 14 0 19 -2 13 -5z m161 -14 c-3 -5 -10 -7 -15 -3 -5 3 -7 10
-3 15 3 5 10 7 15 3 5 -3 7 -10 3 -15z m386 11 c0 -5 -4 -10 -10 -10 -5 0 -10
5 -10 10 0 6 5 10 10 10 6 0 10 -4 10 -10z m115 0 c-3 -5 -10 -10 -16 -10 -5
0 -9 5 -9 10 0 6 7 10 16 10 8 0 12 -4 9 -10z m112 4 c-3 -3 -12 -4 -19 -1 -8
3 -5 6 6 6 11 1 17 -2 13 -5z m108 -4 c-3 -5 -10 -10 -16 -10 -5 0 -9 5 -9 10
0 6 7 10 16 10 8 0 12 -4 9 -10z m395 0 c0 -5 -7 -10 -15 -10 -8 0 -15 5 -15
10 0 6 7 10 15 10 8 0 15 -4 15 -10z m-830 -4 c0 -2 -7 -6 -15 -10 -8 -3 -15
-1 -15 4 0 6 7 10 15 10 8 0 15 -2 15 -4z m553 -3 c-7 -2 -19 -2 -25 0 -7 3
-2 5 12 5 14 0 19 -2 13 -5z m102 -3 c3 -5 -1 -10 -10 -10 -9 0 -13 5 -10 10
3 6 8 10 10 10 2 0 7 -4 10 -10z m279 -11 c-3 -5 -10 -7 -15 -3 -5 3 -7 10 -3
15 3 5 10 7 15 3 5 -3 7 -10 3 -15z m166 11 c0 -5 -4 -10 -10 -10 -5 0 -10 5
-10 10 0 6 5 10 10 10 6 0 10 -4 10 -10z m175 1 c7 -12 -12 -24 -25 -16 -11 7
-4 25 10 25 5 0 11 -4 15 -9z m230 -1 c3 -5 -3 -10 -14 -10 -12 0 -21 5 -21
10 0 6 6 10 14 10 8 0 18 -4 21 -10z m229 1 c3 -5 0 -11 -8 -14 -15 -6 -26 1
-26 15 0 11 27 10 34 -1z m-2916 -17 c-9 -9 -21 -13 -27 -9 -16 10 -3 25 22
25 20 0 20 -1 5 -16z m227 6 c-3 -5 -13 -10 -21 -10 -8 0 -12 5 -9 10 3 6 13
10 21 10 8 0 12 -4 9 -10z m230 0 c-3 -5 -13 -10 -21 -10 -8 0 -12 5 -9 10 3
6 13 10 21 10 8 0 12 -4 9 -10z m165 6 c0 -2 -7 -6 -15 -10 -8 -3 -15 -1 -15
4 0 6 7 10 15 10 8 0 15 -2 15 -4z m165 -6 c-3 -5 -10 -10 -16 -10 -5 0 -9 5
-9 10 0 6 7 10 16 10 8 0 12 -4 9 -10z m272 4 c-3 -3 -12 -4 -19 -1 -8 3 -5 6
6 6 11 1 17 -2 13 -5z m888 -4 c3 -5 -1 -10 -10 -10 -9 0 -13 5 -10 10 3 6 8
10 10 10 2 0 7 -4 10 -10z m670 0 c3 -5 2 -10 -4 -10 -5 0 -13 5 -16 10 -3 6
-2 10 4 10 5 0 13 -4 16 -10z m245 -14 c0 -2 -9 -2 -20 1 -11 3 -20 9 -20 15
0 5 9 4 20 -2 11 -6 20 -12 20 -14z m-2790 5 c0 -11 -31 -24 -39 -16 -3 3 1
10 9 15 19 12 30 12 30 1z m210 -1 c0 -5 -7 -10 -16 -10 -8 0 -12 5 -9 10 3 6
10 10 16 10 5 0 9 -4 9 -10z m670 6 c0 -3 -4 -8 -10 -11 -5 -3 -10 -1 -10 4 0
6 5 11 10 11 6 0 10 -2 10 -4z m390 -6 c0 -5 -7 -10 -16 -10 -8 0 -12 5 -9 10
3 6 10 10 16 10 5 0 9 -4 9 -10z m110 0 c0 -5 -7 -10 -16 -10 -8 0 -12 5 -9
10 3 6 10 10 16 10 5 0 9 -4 9 -10z m115 0 c3 -5 -3 -10 -15 -10 -12 0 -18 5
-15 10 3 6 10 10 15 10 5 0 12 -4 15 -10z m656 -3 c-1 -12 -15 -9 -19 4 -3 6
1 10 8 8 6 -3 11 -8 11 -12z m179 -3 c0 -2 -7 -4 -15 -4 -8 0 -15 4 -15 10 0
5 7 7 15 4 8 -4 15 -8 15 -10z m676 1 c10 -8 14 -15 8 -15 -5 0 -19 7 -30 15
-10 8 -14 15 -8 15 5 0 19 -7 30 -15z m-2571 -5 c-3 -5 -10 -10 -16 -10 -5 0
-9 5 -9 10 0 6 7 10 16 10 8 0 12 -4 9 -10z m180 0 c-3 -5 -13 -10 -21 -10 -8
0 -14 5 -14 10 0 6 9 10 21 10 11 0 17 -4 14 -10z m155 0 c0 -5 -4 -10 -10
-10 -5 0 -10 5 -10 10 0 6 5 10 10 10 6 0 10 -4 10 -10z m284 1 c3 -5 -1 -11
-9 -15 -15 -6 -29 7 -18 18 9 9 21 8 27 -3z m108 -3 c-9 -9 -15 -9 -24 0 -9 9
-7 12 12 12 19 0 21 -3 12 -12z m448 8 c0 -9 -30 -14 -35 -6 -4 6 3 10 14 10
12 0 21 -2 21 -4z m100 -6 c0 -5 -7 -10 -16 -10 -8 0 -12 5 -9 10 3 6 10 10
16 10 5 0 9 -4 9 -10z m277 4 c-3 -3 -12 -4 -19 -1 -8 3 -5 6 6 6 11 1 17 -2
13 -5z m508 -4 c3 -5 -3 -10 -14 -10 -12 0 -21 5 -21 10 0 6 6 10 14 10 8 0
18 -4 21 -10z m220 1 c10 -17 -12 -21 -25 -6 -10 12 -10 15 3 15 9 0 18 -4 22
-9z m235 -11 c0 -10 -26 -20 -34 -13 -14 14 -5 31 14 26 11 -3 20 -9 20 -13z
m-3195 0 c-3 -5 -11 -10 -16 -10 -6 0 -7 5 -4 10 3 6 11 10 16 10 6 0 7 -4 4
-10z m75 -10 c0 -5 -5 -12 -11 -16 -14 -8 -33 11 -25 25 7 11 36 4 36 -9z
m220 5 c-7 -8 -16 -12 -21 -9 -13 8 -1 24 18 24 13 0 13 -3 3 -15z m225 5 c-3
-5 -13 -10 -21 -10 -8 0 -12 5 -9 10 3 6 13 10 21 10 8 0 12 -4 9 -10z m670 0
c3 -5 -3 -10 -15 -10 -12 0 -18 5 -15 10 3 6 10 10 15 10 5 0 12 -4 15 -10z
m880 0 c3 -5 -3 -10 -14 -10 -12 0 -21 5 -21 10 0 6 6 10 14 10 8 0 18 -4 21
-10z m270 0 c3 -5 -1 -10 -9 -10 -9 0 -16 5 -16 10 0 6 4 10 9 10 6 0 13 -4
16 -10z m170 0 c3 -5 -1 -10 -9 -10 -9 0 -16 5 -16 10 0 6 4 10 9 10 6 0 13
-4 16 -10z m385 0 c13 -8 13 -10 -2 -10 -9 0 -20 5 -23 10 -8 13 5 13 25 0z
m-2145 -10 c-3 -5 -13 -10 -21 -10 -8 0 -14 5 -14 10 0 6 9 10 21 10 11 0 17
-4 14 -10z m165 6 c0 -2 -7 -6 -15 -10 -8 -3 -15 -1 -15 4 0 6 7 10 15 10 8 0
15 -2 15 -4z m540 -6 c0 -5 -4 -10 -10 -10 -5 0 -10 5 -10 10 0 6 5 10 10 10
6 0 10 -4 10 -10z m110 0 c0 -5 -4 -10 -10 -10 -5 0 -10 5 -10 10 0 6 5 10 10
10 6 0 10 -4 10 -10z m110 0 c0 -5 -4 -10 -10 -10 -5 0 -10 5 -10 10 0 6 5 10
10 10 6 0 10 -4 10 -10z m110 0 c0 -5 -4 -10 -10 -10 -5 0 -10 5 -10 10 0 6 5
10 10 10 6 0 10 -4 10 -10z m390 0 c0 -5 -7 -10 -15 -10 -8 0 -15 5 -15 10 0
6 7 10 15 10 8 0 15 -4 15 -10z m497 4 c-3 -3 -12 -4 -19 -1 -8 3 -5 6 6 6 11
1 17 -2 13 -5z m453 -4 c13 -8 13 -10 -2 -10 -9 0 -20 5 -23 10 -8 13 5 13 25
0z m-2995 -14 c-11 -8 -23 -12 -28 -9 -13 8 3 23 26 23 20 0 20 0 2 -14z m442
8 c-3 -3 -12 -4 -19 -1 -8 3 -5 6 6 6 11 1 17 -2 13 -5z m505 -6 c-9 -9 -15
-9 -24 0 -9 9 -7 12 12 12 19 0 21 -3 12 -12z m268 2 c0 -5 -2 -10 -4 -10 -3
0 -8 5 -11 10 -3 6 -1 10 4 10 6 0 11 -4 11 -10z m655 0 c3 -5 1 -10 -4 -10
-6 0 -11 5 -11 10 0 6 2 10 4 10 3 0 8 -4 11 -10z m445 0 c0 -5 -4 -10 -10
-10 -5 0 -10 5 -10 10 0 6 5 10 10 10 6 0 10 -4 10 -10z m395 0 c3 -5 -1 -10
-9 -10 -9 0 -16 5 -16 10 0 6 4 10 9 10 6 0 13 -4 16 -10z m226 -6 c12 -14 11
-16 -5 -13 -11 2 -21 10 -24 17 -5 17 13 15 29 -4z m-2651 -4 c0 -5 -7 -10
-15 -10 -8 0 -15 5 -15 10 0 6 7 10 15 10 8 0 15 -4 15 -10z m230 1 c0 -12
-28 -22 -34 -12 -3 5 -3 11 1 15 9 9 33 7 33 -3z m155 -1 c-3 -5 -10 -10 -16
-10 -5 0 -9 5 -9 10 0 6 7 10 16 10 8 0 12 -4 9 -10z m170 0 c-3 -5 -10 -10
-16 -10 -5 0 -9 5 -9 10 0 6 7 10 16 10 8 0 12 -4 9 -10z m1140 0 c3 -5 1 -10
-4 -10 -6 0 -11 5 -11 10 0 6 2 10 4 10 3 0 8 -4 11 -10z m175 6 c0 -11 -19
-15 -25 -6 -3 5 1 10 9 10 9 0 16 -2 16 -4z m330 -6 c0 -5 -4 -10 -9 -10 -6 0
-13 5 -16 10 -3 6 1 10 9 10 9 0 16 -4 16 -10z m170 -6 c0 -2 -7 -4 -15 -4 -8
0 -15 4 -15 10 0 5 7 7 15 4 8 -4 15 -8 15 -10z m-2595 -4 c-3 -5 -13 -10 -21
-10 -8 0 -12 5 -9 10 3 6 13 10 21 10 8 0 12 -4 9 -10z m280 0 c-3 -5 -12 -10
-18 -10 -7 0 -6 4 3 10 19 12 23 12 15 0z m1045 0 c0 -5 -4 -10 -10 -10 -5 0
-10 5 -10 10 0 6 5 10 10 10 6 0 10 -4 10 -10z m110 0 c0 -5 -4 -10 -10 -10
-5 0 -10 5 -10 10 0 6 5 10 10 10 6 0 10 -4 10 -10z m110 0 c0 -5 -7 -10 -16
-10 -8 0 -12 5 -9 10 3 6 10 10 16 10 5 0 9 -4 9 -10z m105 0 c3 -5 -1 -10
-10 -10 -9 0 -13 5 -10 10 3 6 8 10 10 10 2 0 7 -4 10 -10z m546 -3 c-1 -12
-15 -9 -19 4 -3 6 1 10 8 8 6 -3 11 -8 11 -12z m164 3 c3 -5 1 -10 -4 -10 -6
0 -11 5 -11 10 0 6 2 10 4 10 3 0 8 -4 11 -10z m459 1 c4 -5 -1 -8 -9 -7 -21
3 -31 16 -12 16 9 0 18 -4 21 -9z m286 -1 c0 -5 -9 -10 -20 -10 -11 0 -20 5
-20 10 0 6 9 10 20 10 11 0 20 -4 20 -10z m-3327 -15 c-6 -17 -25 -15 -31 3
-2 7 5 12 17 12 14 0 19 -5 14 -15z m297 11 c0 -2 -9 -6 -20 -9 -11 -3 -20 -1
-20 4 0 5 9 9 20 9 11 0 20 -2 20 -4z m425 -6 c-3 -5 -11 -10 -16 -10 -6 0 -7
5 -4 10 3 6 11 10 16 10 6 0 7 -4 4 -10z m170 0 c-3 -5 -10 -10 -16 -10 -5 0
-9 5 -9 10 0 6 7 10 16 10 8 0 12 -4 9 -10z m165 6 c0 -3 -4 -8 -10 -11 -5 -3
-10 -1 -10 4 0 6 5 11 10 11 6 0 10 -2 10 -4z m275 -6 c3 -5 -1 -10 -10 -10
-9 0 -13 5 -10 10 3 6 8 10 10 10 2 0 7 -4 10 -10z m115 6 c0 -11 -19 -15 -25
-6 -3 5 1 10 9 10 9 0 16 -2 16 -4z m540 -6 c0 -5 -7 -10 -15 -10 -8 0 -15 5
-15 10 0 6 7 10 15 10 8 0 15 -4 15 -10z m765 0 c3 -5 -1 -10 -9 -10 -9 0 -16
5 -16 10 0 6 4 10 9 10 6 0 13 -4 16 -10z m220 0 c3 -5 -1 -10 -9 -10 -9 0
-16 5 -16 10 0 6 4 10 9 10 6 0 13 -4 16 -10z m285 0 c13 -8 13 -10 -2 -10 -9
0 -20 5 -23 10 -8 13 5 13 25 0z m-3203 -17 c-9 -9 -19 -14 -23 -11 -10 10 6
28 24 28 15 0 15 -1 -1 -17z m288 7 c-3 -5 -11 -10 -16 -10 -6 0 -7 5 -4 10 3
6 11 10 16 10 6 0 7 -4 4 -10z m220 0 c-3 -5 -10 -10 -16 -10 -5 0 -9 5 -9 10
0 6 7 10 16 10 8 0 12 -4 9 -10z m665 0 c0 -5 -7 -10 -16 -10 -8 0 -12 5 -9
10 3 6 10 10 16 10 5 0 9 -4 9 -10z m870 0 c0 -5 -7 -10 -15 -10 -8 0 -15 5
-15 10 0 6 7 10 15 10 8 0 15 -4 15 -10z m260 0 c0 -5 -2 -10 -4 -10 -3 0 -8
5 -11 10 -3 6 -1 10 4 10 6 0 11 -4 11 -10z m180 -6 c0 -2 -7 -4 -15 -4 -8 0
-15 4 -15 10 0 5 7 7 15 4 8 -4 15 -8 15 -10z m375 6 c3 -5 1 -10 -4 -10 -6 0
-11 5 -11 10 0 6 2 10 4 10 3 0 8 -4 11 -10z m285 -6 c0 -17 -22 -14 -28 4 -2
7 3 12 12 12 9 0 16 -7 16 -16z m-3070 -3 c0 -14 -18 -23 -31 -15 -8 4 -7 9 2
15 18 11 29 11 29 0z m665 -1 c-3 -5 -13 -10 -21 -10 -8 0 -14 5 -14 10 0 6 9
10 21 10 11 0 17 -4 14 -10z m155 6 c0 -3 -4 -8 -10 -11 -5 -3 -10 -1 -10 4 0
6 5 11 10 11 6 0 10 -2 10 -4z m550 0 c0 -3 -4 -8 -10 -11 -5 -3 -10 -1 -10 4
0 6 5 11 10 11 6 0 10 -2 10 -4z m700 -6 c0 -5 -4 -10 -10 -10 -5 0 -10 5 -10
10 0 6 5 10 10 10 6 0 10 -4 10 -10z m500 6 c0 -11 -19 -15 -25 -6 -3 5 1 10
9 10 9 0 16 -2 16 -4z m435 -6 c3 -5 2 -10 -4 -10 -5 0 -13 5 -16 10 -3 6 -2
10 4 10 5 0 13 -4 16 -10z m-2738 -6 c-3 -3 -12 -4 -19 -1 -8 3 -5 6 6 6 11 1
17 -2 13 -5z m720 0 c-3 -3 -12 -4 -19 -1 -8 3 -5 6 6 6 11 1 17 -2 13 -5z
m1353 -4 c0 -5 -2 -10 -4 -10 -3 0 -8 5 -11 10 -3 6 -1 10 4 10 6 0 11 -4 11
-10z m395 0 c3 -5 -1 -10 -9 -10 -8 0 -18 5 -21 10 -3 6 1 10 9 10 8 0 18 -4
21 -10z m562 -7 c2 -6 -4 -10 -13 -9 -10 2 -20 8 -22 15 -3 8 3 12 14 9 9 -1
19 -8 21 -15z m-3517 -3 c0 -12 -28 -25 -36 -17 -9 9 6 27 22 27 8 0 14 -5 14
-10z m265 0 c-3 -5 -10 -10 -16 -10 -5 0 -9 5 -9 10 0 6 7 10 16 10 8 0 12 -4
9 -10z m290 0 c-3 -5 -13 -10 -21 -10 -8 0 -12 5 -9 10 3 6 13 10 21 10 8 0
12 -4 9 -10z m220 0 c-3 -5 -11 -10 -16 -10 -6 0 -7 5 -4 10 3 6 11 10 16 10
6 0 7 -4 4 -10z m325 0 c0 -5 -4 -10 -10 -10 -5 0 -10 5 -10 10 0 6 5 10 10
10 6 0 10 -4 10 -10z m1630 0 c0 -5 -4 -10 -9 -10 -6 0 -13 5 -16 10 -3 6 1
10 9 10 9 0 16 -4 16 -10z m155 0 c3 -5 1 -10 -4 -10 -6 0 -11 5 -11 10 0 6 2
10 4 10 3 0 8 -4 11 -10z m287 -2 c-9 -9 -15 -9 -24 0 -9 9 -7 12 12 12 19 0
21 -3 12 -12z m278 2 c13 -8 13 -10 -2 -10 -9 0 -20 5 -23 10 -8 13 5 13 25 0z
m-3400 -20 c-19 -12 -30 -12 -30 -1 0 10 31 20 40 14 2 -2 -2 -8 -10 -13z
m285 10 c-3 -5 -13 -10 -21 -10 -8 0 -12 5 -9 10 3 6 13 10 21 10 8 0 12 -4 9
-10z m270 0 c-3 -5 -11 -10 -16 -10 -6 0 -7 5 -4 10 3 6 11 10 16 10 6 0 7 -4
4 -10z m930 0 c-3 -5 -10 -10 -16 -10 -5 0 -9 5 -9 10 0 6 7 10 16 10 8 0 12
-4 9 -10z m322 4 c-3 -3 -12 -4 -19 -1 -8 3 -5 6 6 6 11 1 17 -2 13 -5z m113
2 c0 -11 -19 -15 -25 -6 -3 5 1 10 9 10 9 0 16 -2 16 -4z m535 -6 c3 -5 -1
-10 -9 -10 -9 0 -16 5 -16 10 0 6 4 10 9 10 6 0 13 -4 16 -10z m883 -9 c3 -8
-1 -12 -9 -9 -7 2 -15 10 -17 17 -3 8 1 12 9 9 7 -2 15 -10 17 -17z m-3003 -1
c-3 -5 -11 -10 -16 -10 -6 0 -7 5 -4 10 3 6 11 10 16 10 6 0 7 -4 4 -10z m445
6 c0 -3 -4 -8 -10 -11 -5 -3 -10 -1 -10 4 0 6 5 11 10 11 6 0 10 -2 10 -4z
m165 -6 c-3 -5 -10 -10 -16 -10 -5 0 -9 5 -9 10 0 6 7 10 16 10 8 0 12 -4 9
-10z m432 4 c-3 -3 -12 -4 -19 -1 -8 3 -5 6 6 6 11 1 17 -2 13 -5z m1408 -4
c3 -5 -1 -10 -9 -10 -9 0 -16 5 -16 10 0 6 4 10 9 10 6 0 13 -4 16 -10z m220
0 c3 -5 -1 -10 -9 -10 -9 0 -16 5 -16 10 0 6 4 10 9 10 6 0 13 -4 16 -10z
m270 0 c3 -5 2 -10 -4 -10 -5 0 -13 5 -16 10 -3 6 -2 10 4 10 5 0 13 -4 16
-10z m-3210 -10 c-3 -5 -10 -10 -16 -10 -5 0 -9 5 -9 10 0 6 7 10 16 10 8 0
12 -4 9 -10z m335 0 c0 -5 -7 -10 -16 -10 -8 0 -12 5 -9 10 3 6 10 10 16 10 5
0 9 -4 9 -10z m220 0 c0 -5 -7 -10 -16 -10 -8 0 -12 5 -9 10 3 6 10 10 16 10
5 0 9 -4 9 -10z m1945 0 c3 -5 -1 -10 -9 -10 -9 0 -16 5 -16 10 0 6 4 10 9 10
6 0 13 -4 16 -10z m370 0 c3 -5 1 -10 -4 -10 -6 0 -11 5 -11 10 0 6 2 10 4 10
3 0 8 -4 11 -10z m289 -11 c-6 -11 -24 -2 -24 11 0 5 7 7 15 4 8 -4 12 -10 9
-15z m344 3 c2 -7 -6 -12 -17 -12 -21 0 -27 11 -14 24 9 9 26 2 31 -12z
m-3451 2 c-3 -3 -12 -4 -19 -1 -8 3 -5 6 6 6 11 1 17 -2 13 -5z m333 -4 c0 -5
-5 -10 -11 -10 -5 0 -7 5 -4 10 3 6 8 10 11 10 2 0 4 -4 4 -10z m220 0 c0 -5
-5 -10 -11 -10 -5 0 -7 5 -4 10 3 6 8 10 11 10 2 0 4 -4 4 -10z m170 6 c0 -11
-19 -15 -25 -6 -3 5 1 10 9 10 9 0 16 -2 16 -4z m320 -6 c0 -5 -2 -10 -4 -10
-3 0 -8 5 -11 10 -3 6 -1 10 4 10 6 0 11 -4 11 -10z m1077 4 c-3 -3 -12 -4
-19 -1 -8 3 -5 6 6 6 11 1 17 -2 13 -5z m923 -4 c0 -5 -4 -10 -10 -10 -5 0
-10 5 -10 10 0 6 5 10 10 10 6 0 10 -4 10 -10z m341 -6 c12 -14 11 -16 -5 -13
-11 2 -21 10 -24 17 -5 17 13 15 29 -4z m-3653 -6 c-3 -7 -11 -13 -18 -13 -7
0 -15 6 -17 13 -3 7 4 12 17 12 13 0 20 -5 18 -12z m57 -7 c-3 -6 -14 -11 -23
-11 -15 1 -15 2 2 15 21 16 32 13 21 -4z m275 15 c0 -11 -19 -15 -25 -6 -3 5
1 10 9 10 9 0 16 -2 16 -4z m710 -6 c0 -5 -5 -10 -11 -10 -5 0 -7 5 -4 10 3 6
8 10 11 10 2 0 4 -4 4 -10z m165 0 c3 -5 -1 -10 -10 -10 -9 0 -13 5 -10 10 3
6 8 10 10 10 2 0 7 -4 10 -10z m1285 0 c0 -5 -2 -10 -4 -10 -3 0 -8 5 -11 10
-3 6 -1 10 4 10 6 0 11 -4 11 -10z m325 0 c3 -5 -1 -10 -10 -10 -9 0 -13 5
-10 10 3 6 8 10 10 10 2 0 7 -4 10 -10z m225 0 c0 -5 -4 -10 -9 -10 -6 0 -13
5 -16 10 -3 6 1 10 9 10 9 0 16 -4 16 -10z m551 -6 c12 -14 11 -16 -5 -13 -11
2 -21 10 -24 17 -5 17 13 15 29 -4z m-2926 -4 c-3 -5 -10 -10 -16 -10 -5 0 -9
5 -9 10 0 6 7 10 16 10 8 0 12 -4 9 -10z m220 0 c-3 -5 -10 -10 -16 -10 -5 0
-9 5 -9 10 0 6 7 10 16 10 8 0 12 -4 9 -10z m2090 0 c3 -5 1 -10 -4 -10 -6 0
-11 5 -11 10 0 6 2 10 4 10 3 0 8 -4 11 -10z m285 6 c0 -11 -19 -15 -25 -6 -3
5 1 10 9 10 9 0 16 -2 16 -4z m265 -6 c3 -5 1 -10 -4 -10 -6 0 -11 5 -11 10 0
6 2 10 4 10 3 0 8 -4 11 -10z m-3410 -10 c-3 -5 -13 -10 -21 -10 -8 0 -12 5
-9 10 3 6 13 10 21 10 8 0 12 -4 9 -10z m55 -5 c-7 -9 -15 -13 -19 -10 -3 3 1
10 9 15 21 14 24 12 10 -5z m275 5 c-3 -5 -10 -10 -16 -10 -5 0 -9 5 -9 10 0
6 7 10 16 10 8 0 12 -4 9 -10z m275 6 c0 -3 -4 -8 -10 -11 -5 -3 -10 -1 -10 4
0 6 5 11 10 11 6 0 10 -2 10 -4z m380 -6 c0 -5 -4 -10 -10 -10 -5 0 -10 5 -10
10 0 6 5 10 10 10 6 0 10 -4 10 -10z m2380 -6 c0 -2 -7 -4 -15 -4 -8 0 -15 4
-15 10 0 5 7 7 15 4 8 -4 15 -8 15 -10z m-560 -4 c0 -5 -2 -10 -4 -10 -3 0 -8
5 -11 10 -3 6 -1 10 4 10 6 0 11 -4 11 -10z m220 0 c0 -5 -4 -10 -9 -10 -6 0
-13 5 -16 10 -3 6 1 10 9 10 9 0 16 -4 16 -10z m270 0 c0 -5 -2 -10 -4 -10 -3
0 -8 5 -11 10 -3 6 -1 10 4 10 6 0 11 -4 11 -10z m350 -21 c0 -4 -9 -5 -20 -2
-11 3 -20 12 -20 19 0 12 4 12 20 2 11 -7 20 -16 20 -19z m58 14 c2 -8 -5 -13
-17 -13 -12 0 -21 6 -21 16 0 18 31 15 38 -3z m-3914 -14 c-7 -11 -44 -12 -44
-1 0 15 11 20 30 15 11 -3 17 -9 14 -14z m326 17 c0 -3 -4 -8 -10 -11 -5 -3
-10 -1 -10 4 0 6 5 11 10 11 6 0 10 -2 10 -4z m50 -6 c0 -5 -5 -10 -11 -10 -5
0 -7 5 -4 10 3 6 8 10 11 10 2 0 4 -4 4 -10z m285 0 c-3 -5 -10 -10 -16 -10
-5 0 -9 5 -9 10 0 6 7 10 16 10 8 0 12 -4 9 -10z m212 4 c-3 -3 -12 -4 -19 -1
-8 3 -5 6 6 6 11 1 17 -2 13 -5z m223 2 c0 -3 -4 -8 -10 -11 -5 -3 -10 -1 -10
4 0 6 5 11 10 11 6 0 10 -2 10 -4z m1707 -2 c-3 -3 -12 -4 -19 -1 -8 3 -5 6 6
6 11 1 17 -2 13 -5z m373 -4 c0 -5 -2 -10 -4 -10 -3 0 -8 5 -11 10 -3 6 -1 10
4 10 6 0 11 -4 11 -10z m275 0 c3 -5 -1 -10 -9 -10 -9 0 -16 5 -16 10 0 6 4
10 9 10 6 0 13 -4 16 -10z m-3395 -15 c-7 -8 -20 -15 -29 -15 -13 1 -13 3 3
15 26 19 42 19 26 0z m390 5 c0 -5 -7 -10 -16 -10 -8 0 -12 5 -9 10 3 6 10 10
16 10 5 0 9 -4 9 -10z m270 6 c0 -3 -4 -8 -10 -11 -5 -3 -10 -1 -10 4 0 6 5
11 10 11 6 0 10 -2 10 -4z m3061 -9 c-1 -12 -15 -9 -19 4 -3 6 1 10 8 8 6 -3
11 -8 11 -12z m-3661 -6 c0 -12 -20 -25 -27 -18 -7 7 6 27 18 27 5 0 9 -4 9
-9z m380 5 c0 -3 -4 -8 -10 -11 -5 -3 -10 -1 -10 4 0 6 5 11 10 11 6 0 10 -2
10 -4z m280 -6 c0 -5 -7 -10 -16 -10 -8 0 -12 5 -9 10 3 6 10 10 16 10 5 0 9
-4 9 -10z m210 0 c0 -5 -5 -10 -11 -10 -5 0 -7 5 -4 10 3 6 8 10 11 10 2 0 4
-4 4 -10z m2137 4 c-3 -3 -12 -4 -19 -1 -8 3 -5 6 6 6 11 1 17 -2 13 -5z m218
-4 c3 -5 -1 -10 -9 -10 -9 0 -16 5 -16 10 0 6 4 10 9 10 6 0 13 -4 16 -10z
m-3170 -10 c-3 -5 -10 -10 -16 -10 -5 0 -9 5 -9 10 0 6 7 10 16 10 8 0 12 -4
9 -10z m385 0 c0 -5 -7 -10 -16 -10 -8 0 -12 5 -9 10 3 6 10 10 16 10 5 0 9
-4 9 -10z m2720 0 c0 -5 -2 -10 -4 -10 -3 0 -8 5 -11 10 -3 6 -1 10 4 10 6 0
11 -4 11 -10z m330 0 c0 -5 -2 -10 -4 -10 -3 0 -8 5 -11 10 -3 6 -1 10 4 10 6
0 11 -4 11 -10z m70 6 c0 -11 -19 -15 -25 -6 -3 5 1 10 9 10 9 0 16 -2 16 -4z
m-3450 -16 c0 -5 -4 -10 -10 -10 -5 0 -10 5 -10 10 0 6 5 10 10 10 6 0 10 -4
10 -10z m55 0 c-3 -5 -12 -10 -18 -10 -7 0 -6 4 3 10 19 12 23 12 15 0z m325
0 c0 -5 -5 -10 -11 -10 -5 0 -7 5 -4 10 3 6 8 10 11 10 2 0 4 -4 4 -10z m2400
0 c0 -5 -2 -10 -4 -10 -3 0 -8 5 -11 10 -3 6 -1 10 4 10 6 0 11 -4 11 -10z
m550 0 c0 -5 -4 -10 -9 -10 -6 0 -13 5 -16 10 -3 6 1 10 9 10 9 0 16 -4 16
-10z m390 -22 c0 -5 -9 -4 -20 2 -11 6 -18 15 -14 21 6 11 34 -7 34 -23z m58
14 c3 -9 -2 -13 -14 -10 -9 1 -19 9 -22 16 -3 9 2 13 14 10 9 -1 19 -9 22 -16z
m-3663 -2 c-3 -5 -11 -10 -16 -10 -6 0 -7 5 -4 10 3 6 11 10 16 10 6 0 7 -4 4
-10z m325 0 c0 -5 -5 -10 -11 -10 -5 0 -7 5 -4 10 3 6 8 10 11 10 2 0 4 -4 4
-10z m2557 4 c-3 -3 -12 -4 -19 -1 -8 3 -5 6 6 6 11 1 17 -2 13 -5z m659 -22
c-9 -9 -37 8 -31 18 5 8 11 7 21 -1 8 -6 12 -14 10 -17z m-3986 3 c-12 -15
-30 -12 -30 6 0 5 10 9 21 9 18 0 19 -2 9 -15z m57 -2 c-9 -9 -20 -13 -24 -9
-4 4 -1 11 7 16 25 16 35 11 17 -7z m443 13 c0 -3 -4 -8 -10 -11 -5 -3 -10 -1
-10 4 0 6 5 11 10 11 6 0 10 -2 10 -4z m1730 -6 c0 -5 -5 -10 -11 -10 -5 0 -7
5 -4 10 3 6 8 10 11 10 2 0 4 -4 4 -10z m765 0 c3 -5 1 -10 -4 -10 -6 0 -11 5
-11 10 0 6 2 10 4 10 3 0 8 -4 11 -10z m545 0 c0 -5 -4 -10 -10 -10 -5 0 -10
5 -10 10 0 6 5 10 10 10 6 0 10 -4 10 -10z m380 0 c0 -5 -2 -10 -4 -10 -3 0
-8 5 -11 10 -3 6 -1 10 4 10 6 0 11 -4 11 -10z m-3800 -15 c-7 -8 -16 -12 -21
-9 -13 8 -1 24 18 24 13 0 13 -3 3 -15z m440 11 c0 -3 -4 -8 -10 -11 -5 -3
-10 -1 -10 4 0 6 5 11 10 11 6 0 10 -2 10 -4z m1145 -6 c-3 -5 -12 -10 -18
-10 -7 0 -6 4 3 10 19 12 23 12 15 0z m105 6 c0 -3 -4 -8 -10 -11 -5 -3 -10
-1 -10 4 0 6 5 11 10 11 6 0 10 -2 10 -4z m1407 -2 c-3 -3 -12 -4 -19 -1 -8 3
-5 6 6 6 11 1 17 -2 13 -5z m588 -4 c3 -5 1 -10 -4 -10 -6 0 -11 5 -11 10 0 6
2 10 4 10 3 0 8 -4 11 -10z m65 0 c0 -5 -4 -10 -9 -10 -6 0 -13 5 -16 10 -3 6
1 10 9 10 9 0 16 -4 16 -10z m-3700 -10 c0 -5 -4 -10 -10 -10 -5 0 -10 5 -10
10 0 6 5 10 10 10 6 0 10 -4 10 -10z m65 0 c-3 -5 -11 -10 -16 -10 -6 0 -7 5
-4 10 3 6 11 10 16 10 6 0 7 -4 4 -10z m3520 0 c3 -5 -1 -10 -9 -10 -9 0 -16
5 -16 10 0 6 4 10 9 10 6 0 13 -4 16 -10z m-3405 -10 c0 -5 -7 -10 -16 -10 -8
0 -12 5 -9 10 3 6 10 10 16 10 5 0 9 -4 9 -10z m1830 0 c0 -5 -2 -10 -4 -10
-3 0 -8 5 -11 10 -3 6 -1 10 4 10 6 0 11 -4 11 -10z m105 -8 c-3 -3 -11 0 -18
7 -9 10 -8 11 6 5 10 -3 15 -9 12 -12z m1350 8 c3 -5 1 -10 -4 -10 -6 0 -11 5
-11 10 0 6 2 10 4 10 3 0 8 -4 11 -10z m510 -18 c-7 -8 -35 7 -35 18 0 6 7 6
20 -2 10 -7 17 -14 15 -16z m65 3 c0 -3 -9 -5 -20 -5 -11 0 -20 7 -20 15 0 13
4 14 20 5 11 -6 20 -13 20 -15z m-3810 11 c0 -3 -4 -8 -10 -11 -5 -3 -10 -1
-10 4 0 6 5 11 10 11 6 0 10 -2 10 -4z m380 -6 c0 -5 -5 -10 -11 -10 -5 0 -7
5 -4 10 3 6 8 10 11 10 2 0 4 -4 4 -10z m670 0 c0 -5 -2 -10 -4 -10 -3 0 -8 5
-11 10 -3 6 -1 10 4 10 6 0 11 -4 11 -10z m260 0 c0 -5 -5 -10 -11 -10 -5 0
-7 5 -4 10 3 6 8 10 11 10 2 0 4 -4 4 -10z m725 0 c-3 -5 -12 -10 -18 -10 -7
0 -6 4 3 10 19 12 23 12 15 0z m205 0 c0 -5 -2 -10 -4 -10 -3 0 -8 5 -11 10
-3 6 -1 10 4 10 6 0 11 -4 11 -10z m940 0 c0 -5 -2 -10 -4 -10 -3 0 -8 5 -11
10 -3 6 -1 10 4 10 6 0 11 -4 11 -10z m498 -8 c2 -7 -3 -12 -12 -12 -9 0 -16
7 -16 16 0 17 22 14 28 -4z m-4171 -9 c-9 -9 -20 -13 -24 -9 -4 4 -1 11 7 16
25 16 35 11 17 -7z m60 0 c-9 -9 -20 -13 -24 -9 -4 4 -1 11 7 16 25 16 35 11
17 -7z m493 13 c0 -3 -4 -8 -10 -11 -5 -3 -10 -1 -10 4 0 6 5 11 10 11 6 0 10
-2 10 -4z m50 -6 c0 -5 -5 -10 -11 -10 -5 0 -7 5 -4 10 3 6 8 10 11 10 2 0 4
-4 4 -10z m3020 0 c0 -5 -4 -10 -10 -10 -5 0 -10 5 -10 10 0 6 5 10 10 10 6 0
10 -4 10 -10z m490 0 c0 -5 -2 -10 -4 -10 -3 0 -8 5 -11 10 -3 6 -1 10 4 10 6
0 11 -4 11 -10z m-3992 -11 c-2 -6 -8 -10 -13 -10 -5 0 -11 4 -13 10 -2 6 4
11 13 11 9 0 15 -5 13 -11z m542 1 c0 -5 -5 -10 -11 -10 -5 0 -7 5 -4 10 3 6
8 10 11 10 2 0 4 -4 4 -10z m2022 -8 c-7 -2 -9 -9 -6 -14 4 -7 2 -8 -4 -4 -6
4 -9 13 -6 21 4 8 11 12 17 8 8 -5 7 -8 -1 -11z m1253 8 c3 -5 1 -10 -4 -10
-6 0 -11 5 -11 10 0 6 2 10 4 10 3 0 8 -4 11 -10z m122 4 c-3 -3 -12 -4 -19
-1 -8 3 -5 6 6 6 11 1 17 -2 13 -5z m-3887 -8 c0 -3 -4 -8 -10 -11 -5 -3 -10
-1 -10 4 0 6 5 11 10 11 6 0 10 -2 10 -4z m60 -6 c0 -5 -4 -10 -10 -10 -5 0
-10 5 -10 10 0 6 5 10 10 10 6 0 10 -4 10 -10z m50 0 c0 -5 -5 -10 -11 -10 -5
0 -7 5 -4 10 3 6 8 10 11 10 2 0 4 -4 4 -10z m2505 0 c3 -5 1 -10 -4 -10 -6 0
-11 5 -11 10 0 6 2 10 4 10 3 0 8 -4 11 -10z m-2445 -4 c0 -3 -4 -8 -10 -11
-5 -3 -10 -1 -10 4 0 6 5 11 10 11 6 0 10 -2 10 -4z m50 -6 c0 -5 -5 -10 -11
-10 -5 0 -7 5 -4 10 3 6 8 10 11 10 2 0 4 -4 4 -10z m60 -4 c0 -3 -4 -8 -10
-11 -5 -3 -10 -1 -10 4 0 6 5 11 10 11 6 0 10 -2 10 -4z m935 -6 c-3 -5 -12
-10 -18 -10 -7 0 -6 4 3 10 19 12 23 12 15 0z m2335 6 c0 -11 -19 -15 -25 -6
-3 5 1 10 9 10 9 0 16 -2 16 -4z m541 -12 c12 -14 11 -16 -5 -13 -11 2 -21 10
-24 17 -5 17 13 15 29 -4z m59 6 c8 -5 12 -11 9 -14 -3 -3 -14 1 -25 9 -21 16
-8 20 16 5z m45 0 c3 -5 1 -10 -4 -10 -6 0 -11 5 -11 10 0 6 2 10 4 10 3 0 8
-4 11 -10z m-4395 -15 c-7 -8 -20 -15 -29 -15 -13 1 -13 3 3 15 26 19 42 19
26 0z m4115 5 c3 -5 1 -10 -4 -10 -6 0 -11 5 -11 10 0 6 2 10 4 10 3 0 8 -4
11 -10z m60 0 c3 -5 1 -10 -4 -10 -6 0 -11 5 -11 10 0 6 2 10 4 10 3 0 8 -4
11 -10z m55 0 c0 -5 -2 -10 -4 -10 -3 0 -8 5 -11 10 -3 6 -1 10 4 10 6 0 11
-4 11 -10z m-4285 -10 c-3 -5 -11 -10 -16 -10 -6 0 -7 5 -4 10 3 6 11 10 16
10 6 0 7 -4 4 -10z m113 -2 c-6 -18 -28 -21 -28 -4 0 9 7 16 16 16 9 0 14 -5
12 -12z m57 2 c-3 -5 -12 -10 -18 -10 -7 0 -6 4 3 10 19 12 23 12 15 0z m595
6 c0 -3 -4 -8 -10 -11 -5 -3 -10 -1 -10 4 0 6 5 11 10 11 6 0 10 -2 10 -4z
m605 -6 c-3 -5 -12 -10 -18 -10 -7 0 -6 4 3 10 19 12 23 12 15 0z m2750 0 c3
-5 2 -10 -4 -10 -5 0 -13 5 -16 10 -3 6 -2 10 4 10 5 0 13 -4 16 -10z m-3900
-10 c-3 -5 -11 -10 -16 -10 -6 0 -7 5 -4 10 3 6 11 10 16 10 6 0 7 -4 4 -10z
m110 0 c-3 -5 -11 -10 -16 -10 -6 0 -7 5 -4 10 3 6 11 10 16 10 6 0 7 -4 4
-10z m3685 6 c0 -11 -19 -15 -25 -6 -3 5 1 10 9 10 9 0 16 -2 16 -4z m-3575
-16 c-3 -5 -11 -10 -16 -10 -6 0 -7 5 -4 10 3 6 11 10 16 10 6 0 7 -4 4 -10z
m830 0 c-3 -5 -12 -10 -18 -10 -7 0 -6 4 3 10 19 12 23 12 15 0z m1902 -9 c0
-11 -5 -18 -9 -15 -4 3 -5 11 -1 19 7 21 12 19 10 -4z m-2617 5 c0 -3 -4 -8
-10 -11 -5 -3 -10 -1 -10 4 0 6 5 11 10 11 6 0 10 -2 10 -4z m560 -6 c0 -5 -2
-10 -4 -10 -3 0 -8 5 -11 10 -3 6 -1 10 4 10 6 0 11 -4 11 -10z m3381 -6 c12
-14 11 -16 -5 -13 -11 2 -21 10 -24 17 -5 17 13 15 29 -4z m-231 -4 c0 -5 -2
-10 -4 -10 -3 0 -8 5 -11 10 -3 6 -1 10 4 10 6 0 11 -4 11 -10z m55 0 c3 -5 1
-10 -4 -10 -6 0 -11 5 -11 10 0 6 2 10 4 10 3 0 8 -4 11 -10z m55 0 c0 -5 -2
-10 -4 -10 -3 0 -8 5 -11 10 -3 6 -1 10 4 10 6 0 11 -4 11 -10z m65 0 c3 -5
-1 -10 -9 -10 -8 0 -18 5 -21 10 -3 6 1 10 9 10 8 0 18 -4 21 -10z m-4478 -17
c-9 -9 -20 -13 -24 -9 -4 4 -1 11 7 16 25 16 35 11 17 -7z m55 -5 c-6 -6 -15
-8 -19 -4 -4 4 -1 11 7 16 19 12 27 3 12 -12z m3313 12 c-3 -5 -11 -10 -16
-10 -6 0 -7 5 -4 10 3 6 11 10 16 10 6 0 7 -4 4 -10z m775 0 c0 -5 -4 -10 -10
-10 -5 0 -10 5 -10 10 0 6 5 10 10 10 6 0 10 -4 10 -10z m-4030 -4 c0 -3 -4
-8 -10 -11 -5 -3 -10 -1 -10 4 0 6 5 11 10 11 6 0 10 -2 10 -4z m55 -6 c-3 -5
-11 -10 -16 -10 -6 0 -7 5 -4 10 3 6 11 10 16 10 6 0 7 -4 4 -10z m105 0 c0
-5 -5 -10 -11 -10 -5 0 -7 5 -4 10 3 6 8 10 11 10 2 0 4 -4 4 -10z m110 0 c0
-5 -5 -10 -11 -10 -5 0 -7 5 -4 10 3 6 8 10 11 10 2 0 4 -4 4 -10z m3650 0 c0
-5 -2 -10 -4 -10 -3 0 -8 5 -11 10 -3 6 -1 10 4 10 6 0 11 -4 11 -10z m-3540
-4 c0 -3 -4 -8 -10 -11 -5 -3 -10 -1 -10 4 0 6 5 11 10 11 6 0 10 -2 10 -4z
m616 -17 c3 -6 1 -16 -6 -22 -10 -9 -12 -8 -7 5 3 9 1 19 -6 22 -9 3 -9 5 0 5
6 1 15 -4 19 -10z m2454 1 c0 -5 -2 -10 -4 -10 -3 0 -8 5 -11 10 -3 6 -1 10 4
10 6 0 11 -4 11 -10z m935 -10 c3 -5 1 -10 -4 -10 -6 0 -11 5 -11 10 0 6 2 10
4 10 3 0 8 -4 11 -10z m63 -9 c3 -8 -1 -12 -9 -9 -7 2 -15 10 -17 17 -3 8 1
12 9 9 7 -2 15 -10 17 -17z m60 1 c2 -7 -2 -10 -12 -6 -9 3 -16 11 -16 16 0
13 23 5 28 -10z m-4703 -11 c-3 -6 -14 -11 -23 -11 -15 1 -15 2 2 15 21 16 32
13 21 -4z m1090 9 c-3 -5 -12 -10 -18 -10 -7 0 -6 4 3 10 19 12 23 12 15 0z
m3225 0 c0 -5 -2 -10 -4 -10 -3 0 -8 5 -11 10 -3 6 -1 10 4 10 6 0 11 -4 11
-10z m220 0 c0 -5 -2 -10 -4 -10 -3 0 -8 5 -11 10 -3 6 -1 10 4 10 6 0 11 -4
11 -10z m-4480 -15 c-7 -8 -16 -12 -21 -9 -13 8 -1 24 18 24 13 0 13 -3 3 -15z
m110 11 c0 -3 -4 -8 -10 -11 -5 -3 -10 -1 -10 4 0 6 5 11 10 11 6 0 10 -2 10
-4z m100 -6 c0 -5 -5 -10 -11 -10 -5 0 -7 5 -4 10 3 6 8 10 11 10 2 0 4 -4 4
-10z m110 0 c0 -5 -4 -10 -10 -10 -5 0 -10 5 -10 10 0 6 5 10 10 10 6 0 10 -4
10 -10z m3370 0 c0 -5 -2 -10 -4 -10 -3 0 -8 5 -11 10 -3 6 -1 10 4 10 6 0 11
-4 11 -10z m1045 -48 c-7 -8 -35 7 -35 18 0 6 7 6 20 -2 10 -7 17 -14 15 -16z
m-275 8 c0 -5 -2 -10 -4 -10 -3 0 -8 5 -11 10 -3 6 -1 10 4 10 6 0 11 -4 11
-10z m105 0 c3 -5 1 -10 -4 -10 -6 0 -11 5 -11 10 0 6 2 10 4 10 3 0 8 -4 11
-10z m105 -6 c0 -14 -3 -14 -15 -4 -8 7 -15 14 -15 16 0 2 7 4 15 4 8 0 15 -7
15 -16z m-4813 -11 c-9 -9 -20 -13 -24 -9 -4 4 -1 11 7 16 25 16 35 11 17 -7z
m263 7 c0 -5 -5 -10 -11 -10 -5 0 -7 5 -4 10 3 6 8 10 11 10 2 0 4 -4 4 -10z
m110 6 c0 -3 -4 -8 -10 -11 -5 -3 -10 -1 -10 4 0 6 5 11 10 11 6 0 10 -2 10
-4z m100 -6 c0 -5 -5 -10 -11 -10 -5 0 -7 5 -4 10 3 6 8 10 11 10 2 0 4 -4 4
-10z m-415 -10 c-3 -5 -10 -10 -16 -10 -5 0 -9 5 -9 10 0 6 7 10 16 10 8 0 12
-4 9 -10z m45 0 c0 -5 -5 -10 -11 -10 -5 0 -7 5 -4 10 3 6 8 10 11 10 2 0 4
-4 4 -10z m60 6 c0 -3 -4 -8 -10 -11 -5 -3 -10 -1 -10 4 0 6 5 11 10 11 6 0
10 -2 10 -4z m720 -6 c0 -5 -5 -10 -11 -10 -5 0 -7 5 -4 10 3 6 8 10 11 10 2
0 4 -4 4 -10z m3150 -4 c0 -3 -4 -8 -10 -11 -5 -3 -10 -1 -10 4 0 6 5 11 10
11 6 0 10 -2 10 -4z m50 -26 c0 -5 -2 -10 -4 -10 -3 0 -8 5 -11 10 -3 6 -1 10
4 10 6 0 11 -4 11 -10z m605 0 c3 -5 1 -10 -4 -10 -6 0 -11 5 -11 10 0 6 2 10
4 10 3 0 8 -4 11 -10z m205 -5 c10 -12 10 -15 -4 -15 -9 0 -16 7 -16 15 0 8 2
15 4 15 2 0 9 -7 16 -15z m60 0 c10 -12 10 -15 -3 -15 -8 0 -17 7 -21 15 -3 8
-2 15 3 15 5 0 14 -7 21 -15z m-4670 1 c0 -3 -4 -8 -10 -11 -5 -3 -10 -1 -10
4 0 6 5 11 10 11 6 0 10 -2 10 -4z m555 -6 c3 -5 1 -10 -4 -10 -6 0 -11 5 -11
10 0 6 2 10 4 10 3 0 8 -4 11 -10z m3955 0 c0 -5 -2 -10 -4 -10 -3 0 -8 5 -11
10 -3 6 -1 10 4 10 6 0 11 -4 11 -10z m-4874 -15 c-8 -8 -18 -15 -22 -15 -3 0
-1 7 6 15 7 8 17 15 22 15 5 0 3 -7 -6 -15z m56 -7 c-6 -6 -15 -8 -19 -4 -4 4
-1 11 7 16 19 12 27 3 12 -12z m98 12 c0 -5 -5 -10 -11 -10 -5 0 -7 5 -4 10 3
6 8 10 11 10 2 0 4 -4 4 -10z m-50 -4 c0 -3 -4 -8 -10 -11 -5 -3 -10 -1 -10 4
0 6 5 11 10 11 6 0 10 -2 10 -4z m4650 -26 c0 -5 -2 -10 -4 -10 -3 0 -8 5 -11
10 -3 6 -1 10 4 10 6 0 11 -4 11 -10z m308 -19 c3 -8 -1 -12 -9 -9 -7 2 -15
10 -17 17 -3 8 1 12 9 9 7 -2 15 -10 17 -17z m-5089 -22 c-7 -14 -14 -18 -21
-11 -13 13 -2 32 18 32 12 0 13 -4 3 -21z m101 11 c0 -5 -5 -10 -11 -10 -5 0
-7 5 -4 10 3 6 8 10 11 10 2 0 4 -4 4 -10z m5067 -45 c8 -22 -6 -33 -17 -15
-13 20 -12 30 0 30 6 0 13 -7 17 -15z m-5237 -14 c0 -5 -6 -14 -14 -20 -16
-13 -32 2 -21 19 8 12 35 13 35 1z m4580 -1 c0 -5 -2 -10 -4 -10 -3 0 -8 5
-11 10 -3 6 -1 10 4 10 6 0 11 -4 11 -10z m-3945 -10 c3 -5 1 -10 -4 -10 -6 0
-11 5 -11 10 0 6 2 10 4 10 3 0 8 -4 11 -10z m-95 -20 c0 -5 -2 -10 -4 -10 -3
0 -8 5 -11 10 -3 6 -1 10 4 10 6 0 11 -4 11 -10z m4037 4 c-3 -3 -12 -4 -19
-1 -8 3 -5 6 6 6 11 1 17 -2 13 -5z m737 -20 c4 -9 4 -19 2 -21 -8 -8 -26 8
-26 23 0 19 16 18 24 -2z m-5394 -13 c0 -5 -7 -14 -15 -21 -12 -10 -15 -10
-15 2 0 8 3 18 7 21 9 10 23 9 23 -2z m5420 -51 c0 -5 -2 -10 -4 -10 -3 0 -8
5 -11 10 -3 6 -1 10 4 10 6 0 11 -4 11 -10z m50 -5 c10 -12 10 -15 -3 -15 -8
0 -17 7 -21 15 -3 8 -2 15 3 15 5 0 14 -7 21 -15z m-5500 1 c0 -2 -8 -10 -17
-17 -16 -13 -17 -12 -4 4 13 16 21 21 21 13z m-50 -21 c-7 -8 -17 -15 -22 -15
-6 0 -5 7 2 15 7 8 17 15 22 15 6 0 5 -7 -2 -15z m520 5 c0 -5 -2 -10 -4 -10
-3 0 -8 5 -11 10 -3 6 -1 10 4 10 6 0 11 -4 11 -10z m-550 -55 c-7 -8 -17 -15
-22 -15 -6 0 -5 7 2 15 7 8 17 15 22 15 6 0 5 -7 -2 -15z m5685 -45 c3 -5 2
-10 -4 -10 -5 0 -13 5 -16 10 -3 6 -2 10 4 10 5 0 13 -4 16 -10z m-5755 -4 c0
-2 -8 -10 -17 -17 -16 -13 -17 -12 -4 4 13 16 21 21 21 13z m320 -86 c0 -5 -5
-10 -11 -10 -5 0 -7 5 -4 10 3 6 8 10 11 10 2 0 4 -4 4 -10z m5230 -64 c0 -3
-4 -8 -10 -11 -5 -3 -10 -1 -10 4 0 6 5 11 10 11 6 0 10 -2 10 -4z m313 -261
c-3 -9 -8 -14 -10 -11 -3 3 -2 9 2 15 9 16 15 13 8 -4z m-7229 -2463 c27 -4
48 -10 48 -14 -1 -5 -2 -35 -2 -68 l0 -60 -57 -1 c-32 -1 -44 -4 -28 -6 17 -2
40 -6 53 -9 l23 -5 -3 -264 c-3 -256 -4 -265 -25 -286 -27 -27 -66 -20 -90 18
-16 24 -18 56 -18 290 l0 263 -35 6 c-19 3 -41 6 -49 7 -11 2 -14 17 -12 67 1
36 7 67 12 71 10 6 105 1 183 -9z m8676 -52 c0 -33 1 -63 2 -67 1 -5 -5 -9
-13 -10 -8 -1 -30 -4 -49 -7 l-35 -6 0 -263 c0 -234 -2 -266 -18 -290 -24 -38
-63 -45 -90 -18 -21 21 -22 30 -25 286 l-3 264 23 5 c13 3 34 7 48 9 14 3 0 5
-30 6 l-55 1 0 68 0 67 40 6 c22 3 77 7 123 8 l82 1 0 -60z m-7065 -451 c5 -5
-6 -4 -25 2 -45 15 -54 24 -15 15 17 -4 34 -12 40 -17z m82 -195 c-3 -3 -12
-4 -19 -1 -8 3 -5 6 6 6 11 1 17 -2 13 -5z m5131 -1 c-10 -2 -26 -2 -35 0 -10
3 -2 5 17 5 19 0 27 -2 18 -5z m-6721 -40 c-3 -4 -22 -17 -41 -27 -26 -14 -40
-16 -47 -9 -8 8 2 18 32 37 39 23 71 23 56 -1z m1800 -85 c-3 -8 -6 -5 -6 6
-1 11 2 17 5 13 3 -3 4 -12 1 -19z m4728 -1 c14 -11 15 -16 5 -22 -9 -5 -11
-4 -6 3 6 11 -6 16 -26 13 -5 0 -8 4 -8 9 0 14 13 13 35 -3z m-32 -36 c5 -19
-15 -23 -30 -6 -4 4 -2 5 5 1 7 -4 12 -1 12 8 0 22 7 20 13 -3z m1707 15 c0
-2 -8 -10 -17 -17 -16 -13 -17 -12 -4 4 13 16 21 21 21 13z m11 -38 l-12 -23
17 23 c25 33 37 27 18 -10 l-16 -33 27 30 c25 28 26 24 8 -22 -4 -11 2 -8 15
7 25 30 28 16 6 -28 -16 -33 -26 -33 -85 -2 -24 13 -24 17 2 59 22 37 37 36
20 -1z m97 -43 c-6 -14 -15 -25 -19 -25 -5 0 -3 11 3 25 6 14 15 25 19 25 5 0
3 -11 -3 -25z m-6608 7 c0 -4 -13 -13 -30 -19 -38 -14 -39 -8 -2 11 32 18 32
18 32 8z m6630 -28 c-18 -21 -24 -10 -9 18 8 14 14 18 17 10 2 -7 -2 -19 -8
-28z m25 -4 c-4 -12 -9 -19 -12 -17 -3 3 -2 15 2 27 4 12 9 19 12 17 3 -3 2
-15 -2 -27z m-1871 -10 c-6 -6 -10 -3 -10 10 0 13 4 16 10 10 7 -7 7 -13 0
-20z m1896 10 c0 -11 -4 -20 -9 -20 -5 0 -7 9 -4 20 3 11 7 20 9 20 2 0 4 -9
4 -20z m30 -4 c0 -3 -4 -8 -10 -11 -5 -3 -10 -1 -10 4 0 6 5 11 10 11 6 0 10
-2 10 -4z m-6630 -21 c15 -18 7 -19 -19 -4 -13 9 -27 9 -52 1 -31 -11 -32 -10
-15 3 25 19 70 19 86 0z m4784 6 c4 -5 -7 -7 -23 -5 -16 3 -32 0 -36 -6 -3 -5
-11 -10 -17 -10 -7 0 -6 6 2 15 14 16 65 20 74 6z m-4762 -66 c15 -34 15 -35
-6 -35 -12 0 -33 -7 -46 -16 -15 -9 -12 -4 9 14 33 31 35 52 2 52 -9 0 -22 -5
-29 -12 -7 -7 -12 -8 -12 -4 0 13 32 35 50 36 9 0 23 -16 32 -35z m4752 5 c46
-35 40 -39 -13 -8 -25 14 -44 19 -57 14 -17 -7 -15 -11 21 -42 l40 -34 -39 20
c-21 11 -44 16 -50 13 -6 -4 -5 1 3 10 7 9 10 17 7 17 -4 0 -2 9 4 20 15 28
38 25 84 -10z m-4849 -20 c-3 -5 -12 -10 -18 -10 -7 0 -6 4 3 10 19 12 23 12
15 0z m125 -56 c0 -8 -4 -13 -9 -10 -5 3 -14 -1 -22 -10 -7 -8 -22 -20 -33
-26 -14 -7 -9 2 13 26 38 39 51 45 51 20z m4653 -12 c9 -8 17 -20 17 -25 0 -6
-11 0 -25 13 -14 13 -25 20 -25 16 0 -4 -5 -4 -10 -1 -14 9 -1 27 13 19 7 -4
20 -14 30 -22z m-6196 12 c-3 -3 -12 -4 -19 -1 -8 3 -5 6 6 6 11 1 17 -2 13
-5z m7720 0 c-3 -3 -12 -4 -19 -1 -8 3 -5 6 6 6 11 1 17 -2 13 -5z m-6147 -55
c0 -6 -4 -7 -10 -4 -5 3 -21 -5 -35 -19 -33 -34 -32 -20 2 16 25 26 43 29 43
7z m4596 -11 l29 -31 -32 21 c-17 12 -36 22 -43 22 -6 0 -8 5 -5 10 10 16 19
12 51 -22z m-4576 -28 c0 -9 -32 -30 -46 -30 -4 0 1 9 11 20 19 21 35 26 35
10z m4545 -22 c12 -24 12 -28 2 -15 -8 9 -19 17 -26 17 -6 0 -11 7 -11 15 0
26 19 16 35 -17z m-4525 -29 c0 -11 -4 -18 -8 -15 -5 3 -16 -8 -26 -25 -9 -16
-23 -29 -29 -29 -8 0 -9 3 -1 8 5 4 20 24 33 45 26 42 31 45 31 16z m4500 -19
l24 -35 -27 24 c-15 14 -27 21 -27 16 0 -5 -2 -6 -5 -3 -3 3 -3 13 1 22 4 9 7
16 8 14 2 -2 13 -19 26 -38z m-6170 -2 c0 17 44 7 66 -15 25 -25 45 -28 74
-13 15 8 20 6 25 -10 3 -11 10 -20 16 -20 23 0 98 -76 143 -145 64 -98 158
-277 236 -450 13 -27 56 -120 97 -205 41 -85 74 -155 73 -155 -1 0 23 -49 54
-110 45 -91 93 -192 101 -215 1 -3 10 -23 20 -45 10 -22 20 -46 21 -52 1 -7 9
-19 17 -27 7 -8 19 -28 25 -45 7 -17 17 -44 23 -61 6 -16 10 -32 9 -36 -1 -4
5 -11 12 -15 8 -4 20 -26 28 -49 7 -22 17 -40 22 -40 5 0 6 -4 3 -10 -3 -5 2
-22 12 -37 10 -15 17 -28 16 -30 -1 -1 7 -24 19 -50 12 -27 21 -54 21 -60 0
-7 7 -13 15 -13 9 0 13 -2 10 -5 -3 -3 5 -36 18 -72 13 -37 20 -70 16 -73 -13
-10 -10 -40 5 -40 10 0 13 6 8 18 -4 12 -3 14 5 6 7 -7 8 -19 1 -36 -5 -14 -7
-29 -3 -33 3 -3 -2 -3 -12 1 -14 5 -15 9 -4 15 8 5 9 9 2 9 -6 0 -16 -6 -22
-13 -15 -18 -63 -21 -56 -3 3 8 0 17 -7 22 -8 5 -10 3 -4 -7 12 -20 -22 7 -55
44 -13 15 -31 27 -40 27 -13 0 -13 1 0 10 8 5 11 10 5 10 -5 0 -4 4 3 9 10 6
10 10 -2 20 -11 9 -16 9 -22 0 -5 -8 -3 -10 7 -4 8 5 11 5 7 1 -3 -4 -9 -7
-12 -7 -3 1 -5 2 -3 4 7 8 -30 34 -42 29 -9 -3 -12 -1 -7 6 4 6 -2 20 -14 32
-11 11 -17 20 -12 20 4 0 -4 6 -18 13 -14 8 -24 19 -23 25 2 7 -11 25 -29 42
-19 18 -25 30 -17 31 8 0 3 5 -10 10 -15 6 -21 14 -17 25 3 8 2 13 -2 10 -11
-6 -43 30 -34 39 3 3 -4 8 -16 12 -12 3 -20 9 -17 13 3 5 -6 21 -20 36 -14 15
-23 29 -21 32 6 6 -75 82 -87 82 -5 0 -3 8 4 17 8 9 9 14 3 10 -7 -4 -17 0
-24 8 -7 8 -9 15 -5 15 5 0 -3 9 -16 21 -13 12 -23 24 -22 28 1 4 -9 20 -22
35 -31 37 -108 152 -108 163 1 4 -9 20 -21 34 -23 29 -91 138 -96 154 -1 6
-14 26 -29 45 -15 19 -33 50 -40 68 -8 17 -17 32 -22 32 -5 0 -9 7 -9 15 0 9
-9 26 -21 38 -11 12 -29 41 -40 64 -10 23 -23 45 -29 48 -6 3 -19 25 -29 48
-17 37 -29 54 -71 105 -6 6 -9 12 -6 12 3 0 -9 30 -25 68 -43 96 -45 102 -63
148 -8 23 -12 44 -9 47 3 3 1 12 -3 19 -18 29 -20 228 -2 228 4 0 8 9 8 19 0
19 24 36 47 32 7 -1 9 7 6 20 -5 19 -4 20 16 10 11 -7 21 -8 21 -3z m7810 -2
c0 -5 7 -3 15 4 13 11 14 10 9 -4 -4 -11 -2 -15 8 -11 15 6 52 -31 62 -63 14
-43 18 -68 16 -107 -5 -108 -7 -125 -13 -132 -4 -3 -7 -17 -7 -29 0 -13 -4
-26 -10 -29 -5 -3 -10 -15 -10 -26 0 -10 -4 -27 -9 -37 -28 -54 -71 -151 -71
-161 0 -6 -4 -11 -10 -11 -5 0 -10 -7 -10 -15 0 -8 -4 -15 -8 -15 -4 0 -21
-26 -37 -57 -16 -32 -32 -60 -35 -63 -4 -3 -18 -25 -30 -50 -13 -25 -30 -52
-39 -60 -9 -8 -28 -37 -41 -65 -14 -27 -28 -51 -32 -53 -5 -2 -8 -9 -8 -16 0
-7 -9 -21 -20 -31 -11 -10 -17 -21 -15 -25 3 -4 -2 -14 -11 -21 -22 -18 -55
-85 -46 -94 4 -5 2 -6 -4 -2 -5 3 -21 -14 -34 -39 -14 -24 -28 -44 -32 -44 -5
0 -8 -5 -8 -12 0 -7 -18 -38 -40 -69 -22 -32 -40 -62 -40 -69 0 -6 -4 -8 -10
-5 -5 3 -10 -1 -10 -10 0 -9 -14 -29 -30 -45 -17 -17 -28 -30 -24 -30 3 0 1
-7 -6 -15 -7 -8 -17 -12 -24 -8 -6 4 -5 -1 3 -10 7 -9 9 -17 3 -17 -16 0 -81
-70 -116 -125 -11 -16 -27 -35 -35 -42 -9 -7 -12 -13 -6 -13 5 0 -1 -7 -13
-16 -12 -8 -22 -21 -22 -28 0 -7 -10 -18 -22 -24 -13 -6 -17 -11 -9 -11 7 -1
-3 -17 -23 -37 -20 -20 -33 -41 -29 -47 4 -6 1 -7 -7 -2 -10 6 -12 4 -7 -8 4
-12 2 -14 -11 -10 -9 3 -14 3 -10 -1 9 -10 -25 -44 -37 -37 -5 2 -4 -3 3 -12
12 -14 11 -16 -7 -12 -14 3 -19 0 -15 -7 5 -7 2 -9 -8 -5 -9 3 -24 -3 -34 -14
-13 -15 -14 -19 -3 -19 11 0 11 -2 -1 -10 -12 -8 -12 -10 5 -11 17 0 17 -1 3
-7 -9 -4 -26 -19 -38 -35 -12 -15 -28 -27 -36 -27 -8 0 -12 -4 -9 -10 3 -5 -1
-10 -9 -10 -10 0 -13 -6 -10 -15 5 -12 2 -14 -12 -8 -17 6 -17 5 -5 -10 12
-15 12 -17 -4 -10 -14 5 -17 3 -12 -10 4 -11 2 -14 -8 -10 -8 3 -12 9 -9 14 3
5 -6 9 -20 9 -16 0 -26 6 -26 14 0 17 22 15 44 -3 14 -12 16 -11 16 8 0 13 -4
19 -11 16 -5 -4 -20 1 -31 12 -12 10 -18 12 -13 4 5 -10 4 -12 -3 -7 -18 11
-15 39 3 32 11 -4 15 2 15 20 0 17 -4 23 -12 18 -10 -6 -10 -5 -1 7 7 9 15 26
17 40 3 13 5 25 7 27 1 1 2 5 4 10 7 28 26 62 33 62 5 0 8 11 7 25 -2 14 1 23
6 19 5 -3 9 3 9 13 0 11 7 28 15 39 8 10 15 26 15 35 0 9 7 22 15 29 9 7 14
19 11 27 -3 7 -1 13 5 13 6 0 9 7 5 15 -3 8 -1 15 3 15 5 0 14 14 20 30 5 17
15 30 20 30 6 0 10 3 9 8 -3 10 36 111 66 169 13 26 43 89 66 138 23 50 61
131 85 180 146 301 196 408 225 470 90 197 206 417 256 481 35 48 104 113 125
119 11 4 19 13 19 21 0 12 4 13 21 4 26 -14 65 -5 80 18 11 17 59 24 59 8z
m-6110 -26 c0 -5 -9 -14 -19 -19 -17 -10 -18 -8 -8 13 11 23 27 26 27 6z
m4465 -52 c7 -5 7 -8 -1 -8 -16 0 -56 59 -48 71 4 6 13 -3 22 -22 9 -19 21
-37 27 -41z m-4466 -30 c-12 -13 -19 -18 -16 -12 4 6 12 24 18 40 9 22 13 25
16 12 3 -10 -6 -28 -18 -40z m4416 12 l18 -35 -25 24 c-14 14 -24 31 -21 38 6
16 6 17 28 -27z m1119 -12 c-18 -61 -70 -181 -95 -218 -9 -14 -33 -61 -54
-105 -20 -44 -41 -81 -46 -83 -5 -2 -9 -10 -9 -18 0 -8 -4 -14 -10 -14 -5 0
-12 -11 -16 -25 -7 -27 -24 -34 -24 -10 0 8 9 30 20 50 11 20 20 42 20 49 0 7
7 19 15 26 8 7 15 21 15 31 0 11 4 19 10 19 6 0 9 3 8 8 -1 4 9 30 22 57 13
28 24 52 25 55 11 41 119 230 131 230 2 0 -4 -24 -12 -52z m-6626 -11 c12 -18
22 -36 22 -39 0 -3 16 -34 35 -67 19 -34 34 -64 35 -66 0 -3 10 -26 22 -52 12
-27 21 -51 20 -55 -1 -5 3 -8 8 -8 6 0 10 -5 10 -10 0 -6 16 -44 36 -85 20
-41 33 -79 29 -85 -3 -5 -1 -10 4 -10 6 0 11 -4 11 -10 0 -23 -19 -7 -30 25
-6 19 -16 35 -21 35 -5 0 -9 7 -9 15 0 8 -3 15 -8 15 -4 0 -25 37 -47 83 -21
45 -41 84 -45 87 -11 10 -92 185 -93 202 -1 10 -5 18 -9 18 -4 0 -8 9 -8 20 0
29 12 25 38 -13z m1132 0 c0 -7 -7 -22 -15 -33 -13 -17 -13 -16 -3 14 13 34
18 40 18 19z m4340 -2 c0 -8 -4 -15 -10 -15 -5 0 -7 7 -4 15 4 8 8 15 10 15 2
0 4 -7 4 -15z m-4310 -49 c0 -8 -7 -20 -17 -27 -15 -13 -15 -12 -4 9 6 12 9
28 5 34 -4 7 -3 8 4 4 7 -4 12 -13 12 -20z m4290 -26 c0 -13 -1 -13 -10 0 -5
8 -10 22 -10 30 0 13 1 13 10 0 5 -8 10 -22 10 -30z m-4273 -42 c-3 -7 -5 -2
-5 12 0 14 2 19 5 13 2 -7 2 -19 0 -25z m4243 10 c0 -18 -2 -20 -9 -8 -6 8 -7
18 -5 22 9 14 14 9 14 -14z m-4250 -38 c0 -5 -5 -10 -11 -10 -5 0 -7 5 -4 10
3 6 8 10 11 10 2 0 4 -4 4 -10z m4229 -34 c6 -22 6 -35 1 -30 -10 10 -27 83
-17 74 2 -3 10 -23 16 -44z m40 -1 c0 -5 -4 -3 -9 5 -5 8 -9 22 -9 30 0 16 17
-16 18 -35z m-4238 8 c-12 -20 -14 -14 -5 12 4 9 9 14 11 11 3 -2 0 -13 -6
-23z m32 -22 c2 -10 1 -25 -4 -32 -6 -10 -9 -4 -9 19 0 36 5 42 13 13z m4137
-13 c0 -23 -3 -29 -11 -21 -6 6 -8 20 -4 32 9 30 15 26 15 -11z m-33 -60 c-3
-7 -5 -2 -5 12 0 14 2 19 5 13 2 -7 2 -19 0 -25z m-4085 -10 c-8 -8 -9 -4 -5
13 4 13 8 18 11 10 2 -7 -1 -18 -6 -23z m25 -20 c-3 -8 -6 -5 -6 6 -1 11 2 17
5 13 3 -3 4 -12 1 -19z m4039 -4 c-4 -9 -9 -15 -11 -12 -3 3 -3 13 1 22 4 9 9
15 11 12 3 -3 3 -13 -1 -22z m-4009 -86 c-2 -13 -4 -3 -4 22 0 25 2 35 4 23 2
-13 2 -33 0 -45z m3980 0 c-2 -13 -4 -3 -4 22 0 25 2 35 4 23 2 -13 2 -33 0
-45z m-3750 37 c55 -23 34 -27 -28 -5 -32 11 -45 19 -31 20 12 0 39 -7 59 -15z
m-210 -37 c-3 -8 -6 -5 -6 6 -1 11 2 17 5 13 3 -3 4 -12 1 -19z m228 -2 c19
-8 35 -18 35 -21 0 -3 -15 1 -34 9 -19 8 -37 12 -39 9 -3 -2 -8 0 -12 6 -9 15
9 14 50 -3z m3531 7 c-3 -4 -12 -8 -19 -9 -7 -2 -23 -6 -37 -10 -17 -5 -22 -3
-15 4 10 10 36 19 64 21 8 0 11 -2 7 -6z m-3496 -53 c12 -6 20 -13 18 -15 -5
-6 -78 19 -78 27 0 9 33 2 60 -12z m-233 -22 c-3 -8 -6 -5 -6 6 -1 11 2 17 5
13 3 -3 4 -12 1 -19z m3883 6 c0 -8 -5 -12 -10 -9 -6 4 -8 11 -5 16 9 14 15
11 15 -7z m-3630 -24 c12 -6 20 -14 17 -16 -4 -5 -77 24 -77 31 0 6 37 -3 60
-15z m3425 10 c-3 -5 -14 -10 -24 -10 -9 0 -22 -5 -29 -12 -6 -6 -14 -9 -18
-6 -7 7 44 37 64 38 7 0 10 -4 7 -10z m-3641 -59 c-7 -7 -12 3 -19 34 l-6 30
14 -30 c8 -16 13 -32 11 -34z m3819 27 c-3 -16 -9 -28 -14 -28 -4 0 -3 14 3
31 12 36 18 35 11 -3z m-3563 -36 c13 -14 13 -15 -1 -4 -10 7 -27 15 -40 17
-13 3 -30 12 -38 20 -14 14 -11 14 24 0 22 -9 47 -24 55 -33z m4713 28 c-10
-11 -19 -20 -21 -20 -1 0 2 9 8 20 6 11 15 20 20 20 6 0 2 -9 -7 -20z m-4948
-39 c3 -5 1 -12 -5 -16 -5 -3 -10 1 -10 9 0 18 6 21 15 7z m3772 -6 c0 -8 -4
-12 -9 -9 -5 3 -6 10 -3 15 9 13 12 11 12 -6z m-267 -55 c-24 -19 -40 -25 -40
-15 0 5 51 34 60 34 3 0 -6 -8 -20 -19z m35 -10 c-3 -5 -12 -10 -18 -10 -7 0
-6 4 3 10 19 12 23 12 15 0z m-3492 -20 c3 -11 1 -18 -4 -14 -5 3 -9 12 -9 20
0 20 7 17 13 -6z m27 -50 c6 -11 7 -20 2 -20 -6 0 -12 9 -15 20 -3 11 -3 20
-1 20 2 0 8 -9 14 -20z m256 -18 c-4 -3 -14 2 -24 12 -16 18 -16 18 6 6 13 -6
21 -14 18 -18z m3127 16 c-4 -7 -8 -17 -8 -22 0 -5 -11 -15 -25 -24 l-25 -14
25 22 c21 19 22 21 5 16 -18 -5 -17 -4 4 14 27 23 36 26 24 8z m228 -11 c-10
-9 -11 -8 -5 6 3 10 9 15 12 12 3 -3 0 -11 -7 -18z m-3587 -33 c3 -8 2 -12 -4
-9 -6 3 -10 10 -10 16 0 14 7 11 14 -7z m246 -14 c-9 -6 -7 -11 10 -20 18 -10
20 -14 9 -21 -10 -6 -11 -9 -1 -9 6 0 12 -5 12 -11 0 -8 -5 -7 -15 1 -9 7 -13
15 -10 18 3 3 -2 14 -12 24 -9 10 -13 18 -8 18 4 0 1 7 -6 17 -13 15 -12 15
10 4 17 -10 20 -15 11 -21z m3300 -30 c0 -5 -5 -10 -11 -10 -5 0 -7 5 -4 10 3
6 8 10 11 10 2 0 4 -4 4 -10z m-240 -25 c-7 -9 -15 -13 -19 -10 -3 3 1 10 9
15 21 14 24 12 10 -5z m-3019 -42 c13 -16 12 -17 -3 -4 -10 7 -18 15 -18 17 0
8 8 3 21 -13z m3004 7 c-3 -5 -12 -10 -18 -10 -7 0 -6 4 3 10 19 12 23 12 15
0z m225 -5 c0 -8 -4 -15 -10 -15 -5 0 -7 7 -4 15 4 8 8 15 10 15 2 0 4 -7 4
-15z m-3455 -5 c3 -5 1 -10 -4 -10 -6 0 -11 5 -11 10 0 6 2 10 4 10 3 0 8 -4
11 -10z m240 -50 c3 -5 1 -10 -4 -10 -6 0 -11 5 -11 10 0 6 2 10 4 10 3 0 8
-4 11 -10z m40 -9 c3 -5 2 -12 -3 -15 -5 -3 -9 1 -9 9 0 17 3 19 12 6z m2891
-6 c-1 -8 -5 -17 -8 -21 -5 -4 -4 16 1 34 3 9 9 -1 7 -13z m220 -37 c-9 -12
-16 -19 -16 -15 0 11 24 47 28 42 2 -2 -3 -14 -12 -27z m-226 -3 c0 -2 -6 -8
-13 -14 -10 -8 -14 -7 -14 2 0 8 6 14 14 14 7 0 13 -1 13 -2z m-63 -97 c-3 -8
-6 -5 -6 6 -1 11 2 17 5 13 3 -3 4 -12 1 -19z m196 -73 c-3 -9 -8 -14 -10 -11
-3 3 -2 9 2 15 9 16 15 13 8 -4z m-2936 -12 c0 -9 -4 -10 -14 -2 -7 6 -13 12
-13 14 0 1 6 2 13 2 8 0 14 -6 14 -14z m20 -32 c-1 -22 -4 -37 -7 -34 -3 2 -5
8 -5 11 0 4 -4 13 -9 21 -6 10 -5 12 2 7 8 -5 12 0 12 13 0 12 2 21 5 21 2 0
4 -18 2 -39z m2680 18 c1 -9 -5 -20 -12 -23 -9 -3 -12 -15 -9 -33 3 -17 1 -23
-4 -15 -6 9 -9 83 -3 88 9 7 27 -4 28 -17z m-2660 -79 c-1 -11 -5 -20 -9 -20
-10 0 -10 4 -2 24 8 22 13 20 11 -4z m2537 -186 c10 -25 -1 -29 -14 -5 -6 12
-7 21 -1 21 5 0 12 -7 15 -16z m-2331 -309 c-3 -9 -8 -14 -10 -11 -3 3 -2 9 2
15 9 16 15 13 8 -4z m4032 -155 c3 -5 -1 -10 -10 -10 -9 0 -13 5 -10 10 3 6 8
10 10 10 2 0 7 -4 10 -10z m-5615 -168 c3 -2 -2 -3 -10 -2 -27 4 -41 0 -36 -9
3 -5 -1 -11 -9 -14 -9 -4 -12 -1 -8 9 3 7 0 14 -7 14 -6 0 -9 4 -5 10 3 5 12
7 20 3 8 -3 15 0 15 7 0 9 4 9 18 -1 9 -7 19 -15 22 -17z m1840 -137 c0 -2
-10 -9 -22 -15 -22 -11 -22 -10 -4 4 21 17 26 19 26 11z m1715 -75 c3 -5 1
-10 -4 -10 -6 0 -11 5 -11 10 0 6 2 10 4 10 3 0 8 -4 11 -10z m-30 -30 c3 -5
1 -10 -4 -10 -6 0 -11 5 -11 10 0 6 2 10 4 10 3 0 8 -4 11 -10z m-25 -30 c0
-5 -4 -10 -10 -10 -5 0 -10 5 -10 10 0 6 5 10 10 10 6 0 10 -4 10 -10z m-1600
-30 c0 -5 -4 -10 -10 -10 -5 0 -10 5 -10 10 0 6 5 10 10 10 6 0 10 -4 10 -10z
m1610 0 c0 -5 -4 -10 -10 -10 -5 0 -10 5 -10 10 0 6 5 10 10 10 6 0 10 -4 10
-10z m-1550 -79 c0 -5 -9 -7 -20 -4 -11 3 -20 7 -20 9 0 2 9 4 20 4 11 0 20
-4 20 -9z m1520 -51 c-6 -11 -13 -20 -16 -20 -2 0 0 9 6 20 6 11 13 20 16 20
2 0 0 -9 -6 -20z m-1559 -7 c13 -16 12 -17 -3 -4 -17 13 -22 21 -14 21 2 0 10
-8 17 -17z m69 -94 c12 -23 11 -23 -14 3 -14 15 -26 32 -26 38 0 5 -4 10 -10
10 -5 0 -10 6 -10 12 0 16 43 -29 60 -63z m1454 46 c-9 -14 -24 -25 -33 -24
-13 0 -14 2 -1 6 8 4 21 14 28 25 20 27 25 22 6 -7z"/>
<path d="M6333 2915 c0 -8 4 -12 9 -9 5 3 6 10 3 15 -9 13 -12 11 -12 -6z"/>
<path d="M7640 4979 c0 -6 -5 -7 -12 -3 -7 4 -8 3 -4 -4 4 -7 2 -12 -5 -12 -7
0 -10 -3 -7 -6 4 -3 18 1 33 9 22 11 24 15 11 20 -9 4 -16 2 -16 -4z"/>
<path d="M7538 4963 c7 -3 16 -2 19 1 4 3 -2 6 -13 5 -11 0 -14 -3 -6 -6z"/>
<path d="M2433 4923 c4 -6 2 -13 -5 -15 -8 -3 -6 -7 5 -11 23 -9 30 8 10 24
-9 8 -14 9 -10 2z"/>
<path d="M2535 4910 c-3 -5 -1 -10 4 -10 6 0 11 5 11 10 0 6 -2 10 -4 10 -3 0
-8 -4 -11 -10z"/>
<path d="M2600 4791 c0 -7 -5 -9 -12 -5 -6 4 -8 3 -4 -4 3 -5 0 -13 -6 -15 -8
-4 -9 -6 -2 -6 15 -1 39 28 30 36 -3 3 -6 1 -6 -6z"/>
<path d="M7421 4788 c-1 -10 4 -18 10 -18 8 0 8 -5 -1 -15 -7 -8 -9 -15 -5
-15 5 0 0 -9 -9 -19 -20 -22 -6 -38 21 -22 14 8 15 11 3 11 -12 0 -10 4 4 15
20 15 20 15 0 15 -19 1 -19 1 0 15 11 8 14 15 7 15 -7 0 -9 5 -5 12 4 6 3 8
-4 4 -5 -3 -13 0 -15 6 -3 8 -6 6 -6 -4z"/>
<path d="M2630 4751 c-8 -6 -19 -7 -25 -3 -5 3 -4 -2 4 -11 8 -10 14 -16 15
-15 1 2 8 11 15 21 15 19 13 21 -9 8z"/>
<path d="M2580 4680 c0 -5 5 -10 10 -10 6 0 10 5 10 10 0 6 -4 10 -10 10 -5 0
-10 -4 -10 -10z"/>
<path d="M6629 3503 c-13 -15 -12 -15 9 -4 23 12 28 21 13 21 -5 0 -15 -7 -22
-17z"/>
<path d="M3704 2903 c2 -10 6 -17 10 -16 15 3 16 11 2 22 -12 10 -14 9 -12 -6z"/>
<path d="M6235 2780 c-3 -6 1 -7 9 -4 18 7 21 14 7 14 -6 0 -13 -4 -16 -10z"/>
<path d="M3981 2394 c0 -11 3 -14 6 -6 3 7 2 16 -1 19 -3 4 -6 -2 -5 -13z"/>
<path d="M4205 1870 c-3 -6 1 -7 9 -4 18 7 21 14 7 14 -6 0 -13 -4 -16 -10z"/>
<path d="M5660 1480 c0 -5 5 -10 11 -10 5 0 7 5 4 10 -3 6 -8 10 -11 10 -2 0
-4 -4 -4 -10z"/>
</g>
</svg>
